<svg width="260" height="260" viewBox="0 0 260 260" fill="none" xmlns="http://www.w3.org/2000/svg">
<rect width="260" height="260" fill="white"/>
<path d="M47.3259 92.7365C46.6194 93.3367 46.3443 93.937 46.0754 95.6751C45.8066 97.4195 46.2192 98.4887 45.9879 101.434C45.7628 104.378 45.6815 106.379 44.9313 110.393C44.181 114.407 43.5682 116.808 42.2365 121.51C40.911 126.212 39.9856 128.888 38.285 133.89C36.5843 138.891 35.534 141.642 33.7395 146.519C31.9514 151.396 30.926 154.091 29.3254 158.274C27.731 162.463 26.937 164.551 25.749 167.452C24.5611 170.347 23.9108 171.191 23.3856 172.76C22.8604 174.336 22.973 174.692 23.1355 175.318C23.2981 175.943 23.5607 176.143 24.1984 175.899C24.8362 175.655 25.4739 175.58 26.3305 174.098C27.1933 172.617 27.4497 171.491 28.4938 168.49C29.5442 165.489 30.1069 163.332 31.5575 159.08C33.0143 154.835 34.0084 152.153 35.7653 147.257C37.5222 142.361 38.5789 139.61 40.342 134.602C42.1052 129.594 43.0743 126.924 44.5811 122.216C46.0942 117.508 46.832 115.107 47.9011 111.062C48.9703 107.017 49.3016 105.004 49.9144 101.984C50.5271 98.9638 51.0211 97.8134 50.9585 95.9565C50.896 94.0995 50.3333 93.343 49.608 92.699C48.8765 92.055 48.0324 92.1425 47.3259 92.7365Z" fill="black" stroke="black" stroke-width="4.25475"/>
<path d="M28.0498 104.916C28.5937 105.335 28.7875 105.748 29.9004 105.535C31.0196 105.316 31.5511 104.816 33.6206 103.841C35.6964 102.872 36.9906 101.978 40.2606 100.665C43.5306 99.3578 45.8815 98.4888 49.983 97.2821C54.0908 96.0754 56.4792 95.3938 60.7746 94.6248C65.07 93.8558 67.5334 93.5432 71.4599 93.4369C75.3926 93.3306 77.4559 93.4931 80.4195 94.0809C83.3831 94.6748 84.6774 95.3001 86.2842 96.388C87.8911 97.4759 88.1975 97.9386 88.4538 99.5142C88.7101 101.09 88.7227 101.896 87.5785 104.266C86.4343 106.642 85.4527 108.305 82.7454 111.369C80.0381 114.439 78.0686 116.239 74.0546 119.597C70.0406 122.954 67.3896 124.867 62.6753 128.156C57.9673 131.445 55.0599 133.177 50.5082 136.034C45.9502 138.885 43.6306 140.33 39.9105 142.424C36.1903 144.519 34.2396 145.319 31.9012 146.513C29.5628 147.714 28.9188 147.839 28.2311 148.42C27.5496 149.002 28.2061 149.339 28.4687 149.414C28.7313 149.489 29.6379 149.145 29.5441 148.789C29.4503 148.433 28.4249 147.532 27.9872 147.632C27.5558 147.739 27.1619 148.645 27.362 149.302C27.5621 149.958 27.7997 150.915 29.0001 150.921C30.2006 150.921 30.9383 150.602 33.3643 149.314C35.7902 148.026 37.4783 146.769 41.1297 144.462C44.7811 142.161 47.0757 140.711 51.6211 137.791C56.1666 134.871 59.0802 133.146 63.8633 129.869C68.6401 126.587 71.3348 124.717 75.5177 121.397C79.7067 118.077 81.795 116.396 84.7962 113.263C87.8036 110.131 89.1166 108.605 90.5546 105.729C91.9864 102.853 92.4366 101.302 91.9739 98.8764C91.505 96.4505 90.4233 95.1375 88.2162 93.5932C86.0154 92.0488 84.321 91.7112 80.951 91.1485C77.5809 90.5858 75.4927 90.5983 71.3661 90.7734C67.2458 90.9547 64.7574 91.2923 60.3244 92.0301C55.8978 92.7616 53.4781 93.4368 49.2328 94.456C44.9874 95.4751 42.624 96.2004 39.0977 97.1195C35.5713 98.0386 33.877 98.1699 31.5948 99.039C29.3065 99.908 28.5499 100.583 27.6684 101.459C26.7868 102.34 27.1119 102.753 27.1869 103.441C27.262 104.135 27.5058 104.497 28.0498 104.916Z" fill="black" stroke="black" stroke-width="4.25475"/>
<path d="M116.003 89.8979C115.102 90.0605 114.496 90.3106 113.352 91.8487C112.207 93.3867 111.851 94.7185 110.276 97.5821C108.706 100.446 107.675 102.34 105.499 106.173C103.317 109.999 101.891 112.444 99.3839 116.727C96.8767 121.003 95.4449 123.473 92.9502 127.568C90.4555 131.67 89.0425 133.815 86.9104 137.222C84.7721 140.623 83.4654 142.118 82.2774 144.594C81.0895 147.076 80.5768 148.176 80.9707 149.608C81.3708 151.034 82.5775 151.878 84.2594 151.746C85.9413 151.615 86.9792 150.558 89.3801 148.945C91.781 147.332 93.3191 145.863 96.2702 143.687C99.2213 141.511 101.166 139.961 104.142 138.079C107.124 136.197 109 135.334 111.163 134.283C113.327 133.233 114.146 133.095 114.971 132.82C115.796 132.545 115.609 132.476 115.284 132.908C114.959 133.339 114.133 133.752 113.339 134.965C112.545 136.184 112.007 137.191 111.313 138.998C110.613 140.805 110.107 142.024 109.844 144.006C109.588 145.994 109.488 147.113 110 148.92C110.513 150.727 110.988 151.834 112.42 153.047C113.852 154.26 114.99 154.979 117.166 154.991C119.341 155.01 120.598 154.247 123.299 153.122C125.994 151.996 127.538 151.14 130.664 149.364C133.791 147.588 135.598 146.269 138.93 144.25C142.263 142.224 144.232 141.086 147.333 139.242C150.428 137.397 152.273 136.353 154.411 135.034C156.549 133.721 157.437 133.239 158.019 132.652C158.6 132.058 158.025 131.732 157.318 132.076C156.612 132.426 155.574 132.952 154.492 134.383C153.411 135.809 152.829 137.191 151.922 139.223C151.016 141.255 150.184 142.468 149.959 144.531C149.728 146.601 150.009 147.882 150.772 149.545C151.541 151.209 152.123 152.078 153.786 152.853C155.443 153.622 156.63 153.835 159.075 153.416C161.52 152.991 162.883 152.228 166.009 150.752C169.141 149.27 170.942 148.257 174.712 146.019C178.483 143.787 180.658 142.474 184.86 139.579C189.061 136.691 191.444 134.884 195.714 131.57C199.991 128.25 202.16 126.474 206.23 122.992C210.301 119.503 212.445 117.615 216.078 114.138C219.711 110.662 221.505 108.849 224.394 105.61C227.282 102.378 228.514 100.702 230.527 97.9572C232.534 95.2124 233.591 94.0745 234.447 91.8862C235.31 89.6916 235.348 88.6787 234.829 87.0093C234.304 85.3337 233.547 84.2208 231.846 83.5143C230.146 82.814 228.758 82.8515 226.326 83.4893C223.893 84.1333 222.555 84.9648 219.686 86.7217C216.816 88.4786 215.234 89.5603 211.976 92.2738C208.719 94.9873 206.837 96.7068 203.404 100.289C199.972 103.872 197.946 106.054 194.82 110.181C191.694 114.307 190.112 116.652 187.774 120.916C185.435 125.186 184.36 127.493 183.134 131.514C181.915 135.54 181.465 137.541 181.671 141.03C181.884 144.525 182.509 146.257 184.172 148.976C185.842 151.696 187.029 153.016 189.993 154.635C192.957 156.248 195.064 156.567 198.996 157.067C202.935 157.567 205.261 157.423 209.688 157.136C214.115 156.848 216.935 156.26 221.124 155.629C225.319 154.998 227.607 154.647 230.652 153.978C233.691 153.303 235.291 152.99 236.342 152.271C237.399 151.546 237.161 150.571 235.917 150.371C234.672 150.164 233.172 150.746 230.127 151.24C227.082 151.734 224.825 152.209 220.705 152.84C216.578 153.478 213.777 154.135 209.507 154.41C205.243 154.691 202.986 154.729 199.365 154.241C195.752 153.76 193.963 153.359 191.425 151.996C188.88 150.633 188.08 149.658 186.667 147.432C185.254 145.2 184.61 143.893 184.366 140.848C184.122 137.804 184.378 135.972 185.454 132.201C186.536 128.431 187.523 126.124 189.749 121.991C191.981 117.865 193.532 115.545 196.614 111.55C199.691 107.548 201.716 105.404 205.143 102.002C208.575 98.6012 210.495 96.9443 213.758 94.5434C217.022 92.1488 218.691 91.2922 221.461 90.0105C224.225 88.7225 225.707 88.66 227.595 88.116C229.483 87.5721 230.083 87.372 230.902 87.297C231.728 87.2219 231.69 87.0906 231.709 87.7346C231.721 88.3723 231.703 88.7725 230.996 90.4982C230.283 92.2238 229.827 93.6368 228.151 96.3504C226.469 99.0702 225.313 100.815 222.605 104.072C219.898 107.323 218.147 109.149 214.609 112.625C211.07 116.095 208.938 117.99 204.905 121.441C200.872 124.899 198.703 126.656 194.432 129.894C190.162 133.133 187.774 134.902 183.559 137.635C179.339 140.367 177.138 141.617 173.349 143.556C169.567 145.5 167.641 146.319 164.621 147.338C161.607 148.364 160.176 148.364 158.269 148.683C156.368 149.001 155.83 148.964 155.111 148.933C154.392 148.901 154.498 149.083 154.68 148.526C154.867 147.97 155.368 147.451 156.037 146.144C156.699 144.837 157.162 143.825 158.012 141.986C158.863 140.148 159.869 138.898 160.288 136.953C160.707 135.009 160.676 133.689 160.094 132.27C159.513 130.845 158.9 129.951 157.375 129.844C155.843 129.732 154.805 130.394 152.454 131.726C150.103 133.058 148.659 134.546 145.633 136.509C142.606 138.473 140.643 139.604 137.317 141.542C133.991 143.481 132.102 144.712 129.008 146.207C125.913 147.695 124.256 148.32 121.842 148.995C119.429 149.67 118.316 149.427 116.941 149.589C115.571 149.752 115.384 150.039 114.984 149.802C114.59 149.57 114.708 149.277 114.959 148.426C115.209 147.576 115.678 146.982 116.234 145.544C116.797 144.106 117.203 143.024 117.76 141.242C118.31 139.46 118.898 138.454 118.998 136.634C119.098 134.815 119.066 133.577 118.26 132.145C117.453 130.707 116.709 129.738 114.971 129.463C113.227 129.194 112.089 129.657 109.544 130.782C107.006 131.914 105.361 133.152 102.266 135.096C99.165 137.047 97.1268 138.466 94.0506 140.53C90.9807 142.593 89.105 143.781 86.8979 145.406C84.6846 147.032 83.7217 147.795 82.9902 148.651C82.2649 149.508 82.7964 150.183 83.2528 149.677C83.7092 149.164 84.0844 148.326 85.2723 146.107C86.454 143.881 87.2293 142.024 89.1738 138.566C91.1183 135.102 92.525 132.914 94.9885 128.8C97.4582 124.686 98.9025 122.223 101.51 118.002C104.111 113.782 105.617 111.387 108.012 107.698C110.407 104.01 111.62 102.234 113.477 99.5578C115.327 96.8756 116.415 96.0065 117.291 94.2996C118.16 92.5989 118.103 91.9112 117.847 91.0296C117.591 90.1543 116.903 89.7354 116.003 89.8979Z" fill="black" stroke="black" stroke-width="4.25475"/>
</svg>
