<svg width="42px" height="24px" viewBox="0 0 42 24" version="1.1" xmlns="http://www.w3.org/2000/svg" xmlns:xlink="http://www.w3.org/1999/xlink" xmlns:sketch="http://www.bohemiancoding.com/sketch/ns">
  <g id="polyclip">
    <clipPath id="poolyclip">
        <path d="M0,0 L0,4 L42,4 L42,0 L0,0 Z M0,0" fill="#FFFFFF" id="Rectangle 1"></path>
        <path d="M0,10 L0,14 L42,14 L42,10 L0,10 Z M0,10" fill="#FFFFFF" id="Rectangle 1"></path>
        <path d="M0,20 L0,24 L42,24 L42,20 L0,20 Z M0,20" fill="#FFFFFF" id="Rectangle 1"></path>
    </clipPath>
  </g>
  <g id="poly" stroke="none" stroke-width="1" fill="none" fill-rule="evenodd" stroke-linecap="square">
        <path d="M0,0 L0,4 L42,4 L42,0 L0,0 Z M0,0" fill="#FFFFFF" id="Rectangle 1"></path>
        <path d="M0,10 L0,14 L42,14 L42,10 L0,10 Z M0,10" fill="#FFFFFF" id="Rectangle 1"></path>
        <path d="M0,20 L0,24 L42,24 L42,20 L0,20 Z M0,20" fill="#FFFFFF" id="Rectangle 1"></path>
  </g>
</svg>
