<?xml version="1.0" encoding="UTF-8" standalone="no"?>
<svg width="42px" height="24px" viewBox="0 0 42 24" version="1.1" xmlns="http://www.w3.org/2000/svg" xmlns:xlink="http://www.w3.org/1999/xlink" xmlns:sketch="http://www.bohemiancoding.com/sketch/ns">
    <title>Slice 1</title>
    <description>Created with Sketch (http://www.bohemiancoding.com/sketch)</description>
    <defs></defs>
    <g id="Page 1" stroke="none" stroke-width="1" fill="none" fill-rule="evenodd">
        <g id="Group" fill="#FFFFFF">
            <path d="M0.996782452,0 C0.446274705,0 0,0.443353176 0,1.0093689 L0,2.9906311 C0,3.54809015 0.443261772,4 0.996782452,4 L41.0032175,4 C41.5537253,4 42,3.55664682 42,2.9906311 L42,1.0093689 C42,0.451909848 41.5567382,0 41.0032175,0 L0.996782452,0 Z M0.996782452,0" id="Rectangle 1"></path>
            <path d="M0.996782452,10 C0.446274705,10 0,10.4433532 0,11.0093689 L0,12.9906311 C0,13.5480902 0.443261772,14 0.996782452,14 L41.0032175,14 C41.5537253,14 42,13.5566468 42,12.9906311 L42,11.0093689 C42,10.4519098 41.5567382,10 41.0032175,10 L0.996782452,10 Z M0.996782452,10" id="Rectangle 1"></path>
            <path d="M0.996782452,20 C0.446274705,20 0,20.4433532 0,21.0093689 L0,22.9906311 C0,23.5480902 0.443261772,24 0.996782452,24 L41.0032175,24 C41.5537253,24 42,23.5566468 42,22.9906311 L42,21.0093689 C42,20.4519098 41.5567382,20 41.0032175,20 L0.996782452,20 Z M0.996782452,20" id="Rectangle 1"></path>
        </g>
    </g>
</svg>