<?xml version="1.0" encoding="UTF-8" standalone="no"?>
<svg width="32px" height="18px" viewBox="0 0 32 18" version="1.1" xmlns="http://www.w3.org/2000/svg" xmlns:xlink="http://www.w3.org/1999/xlink" xmlns:sketch="http://www.bohemiancoding.com/sketch/ns">
    <title>Slice 1</title>
    <description>Created with Sketch (http://www.bohemiancoding.com/sketch)</description>
    <defs></defs>
    <g id="Page 1" stroke="none" stroke-width="1" fill="none" fill-rule="evenodd">
        <path d="M0.992786407,0 C0.444485615,0 0,0.442660332 0,0.998956561 L0,2.00104344 C0,2.55275191 0.452362061,3 0.992786407,3 L31.0072136,3 C31.5555144,3 32,2.55733967 32,2.00104344 L32,0.998956561 C32,0.447248087 31.5476379,0 31.0072136,0 L0.992786407,0 Z M0.992786407,0" id="Rectangle 1" fill="#FFFFFF"></path>
        <path d="M0.992786407,6.91666667 C0.444485615,6.91666667 0,7.359327 0,7.91562323 L0,8.91771011 C0,9.46941858 0.452362061,9.91666667 0.992786407,9.91666667 L31.0072136,9.91666667 C31.5555144,9.91666667 32,9.47400633 32,8.91771011 L32,7.91562323 C32,7.36391475 31.5476379,6.91666667 31.0072136,6.91666667 L0.992786407,6.91666667 Z M0.992786407,6.91666667" id="Rectangle 1" fill="#FFFFFF"></path>
        <path d="M0.992786407,13.8333333 C0.444485615,13.8333333 0,14.2759937 0,14.8322899 L0,15.8343768 C0,16.3860852 0.452362061,16.8333333 0.992786407,16.8333333 L31.0072136,16.8333333 C31.5555144,16.8333333 32,16.390673 32,15.8343768 L32,14.8322899 C32,14.2805814 31.5476379,13.8333333 31.0072136,13.8333333 L0.992786407,13.8333333 Z M0.992786407,13.8333333" id="Rectangle 1" fill="#FFFFFF"></path>
    </g>
</svg>