<svg width="234" height="50" viewBox="0 0 234 50" fill="none" xmlns="http://www.w3.org/2000/svg">
<path d="M16.9541 6.69984C16.7741 6.98984 16.8041 7.26983 16.6741 8.06983C16.5541 8.86983 16.5141 9.38983 16.3341 10.6898C16.1541 11.9798 16.1141 12.7899 15.7841 14.5299C15.4641 16.2799 15.2541 17.3498 14.7241 19.4098C14.1841 21.4798 13.8541 22.6098 13.1341 24.8498C12.4041 27.0998 11.9541 28.3498 11.0741 30.6398C10.2041 32.9198 9.68415 34.1199 8.76415 36.2799C7.84415 38.4299 7.31415 39.5999 6.46415 41.3999C5.61415 43.1999 5.17415 44.0399 4.53415 45.2799C3.88415 46.5199 3.58415 47.0599 3.22414 47.6199C2.85414 48.1899 2.78415 48.3798 2.69415 48.1098C2.61415 47.8398 2.66414 47.4498 2.79414 46.2698C2.92414 45.0898 3.03414 44.1398 3.34414 42.1998C3.65414 40.2598 3.79415 38.9698 4.32415 36.5798C4.85415 34.1798 5.21414 32.7698 6.00414 30.2298C6.80414 27.6898 7.26414 26.3199 8.29414 23.8699C9.31414 21.4099 9.89414 20.1798 11.1241 17.9498C12.3541 15.7198 13.0741 14.6298 14.4441 12.7098C15.8041 10.7798 16.5441 9.84985 17.9541 8.33985C19.3741 6.82985 20.1041 6.14983 21.5041 5.15983C22.8941 4.15983 23.6141 3.80983 24.9241 3.34983C26.2441 2.88983 26.9241 2.83984 28.0541 2.85984C29.1941 2.88984 29.7641 3.04985 30.6041 3.48985C31.4541 3.93985 31.8241 4.27985 32.2941 5.08985C32.7641 5.88985 32.9141 6.37986 32.9441 7.52986C32.9741 8.66986 32.9041 9.32985 32.4441 10.7998C31.9741 12.2598 31.6041 13.1198 30.6241 14.8298C29.6341 16.5398 28.9641 17.5399 27.5141 19.3399C26.0541 21.1499 25.1141 22.1398 23.3641 23.8498C21.6041 25.5598 20.5341 26.4198 18.7341 27.8798C16.9241 29.3398 15.9041 30.0498 14.3541 31.1398C12.8041 32.2198 11.9641 32.6599 10.9941 33.3099C10.0141 33.9499 9.60415 34.1898 9.47414 34.3798C9.33414 34.5598 9.50414 34.5998 10.3141 34.2298C11.1241 33.8598 12.1241 33.3999 13.5241 32.5299C14.9241 31.6699 15.9641 30.9498 17.3141 29.9098C18.6641 28.8698 19.7741 27.9898 20.2841 27.3298C20.8041 26.6698 20.7041 26.4799 19.8741 26.6199C19.0341 26.7599 17.6541 27.2298 16.1141 28.0198C14.5741 28.8198 13.4941 29.5498 12.1641 30.5998C10.8441 31.6498 10.0241 32.4499 9.47414 33.2799C8.92414 34.1099 9.00414 34.4999 9.43414 34.7499C9.85414 34.9999 10.4341 34.9698 11.6141 34.5398C12.7841 34.0998 13.6541 33.6099 15.3041 32.5599C16.9541 31.5199 17.9941 30.7698 19.8641 29.2998C21.7341 27.8298 22.8441 26.9598 24.6741 25.2098C26.5041 23.4598 27.4941 22.4398 29.0141 20.5498C30.5341 18.6598 31.2441 17.6198 32.2741 15.7698C33.3041 13.9198 33.7041 12.9698 34.1641 11.2998C34.6241 9.63985 34.6841 8.82985 34.5641 7.42985C34.4441 6.02985 34.2241 5.35983 33.5641 4.31983C32.9141 3.26983 32.3841 2.78984 31.2941 2.19984C30.2041 1.61984 29.4741 1.43983 28.1041 1.37983C26.7341 1.31983 25.9441 1.42985 24.4441 1.92985C22.9441 2.41985 22.1341 2.81985 20.6041 3.86985C19.0641 4.92985 18.2741 5.63985 16.7641 7.20985C15.2641 8.77985 14.4941 9.73986 13.0641 11.7199C11.6341 13.6999 10.9041 14.8198 9.61415 17.1098C8.33415 19.3998 7.72415 20.6598 6.64415 23.1698C5.55415 25.6698 5.05414 27.0498 4.18414 29.6398C3.31414 32.2298 2.89414 33.6498 2.29414 36.1098C1.70414 38.5598 1.44415 39.8698 1.21415 41.9098C0.974147 43.9598 0.924146 44.9798 1.12415 46.3198C1.32415 47.6498 1.64414 48.1798 2.20414 48.5798C2.76414 48.9898 3.20414 48.8498 3.93414 48.3498C4.66414 47.8398 5.03415 47.2999 5.85415 46.0599C6.66415 44.8199 7.08414 43.9599 8.00414 42.1499C8.91414 40.3399 9.45414 39.1599 10.4141 36.9898C11.3741 34.8198 11.8841 33.6098 12.7841 31.2998C13.6941 28.9898 14.1541 27.7198 14.9141 25.4398C15.6841 23.1698 16.0341 22.0198 16.6141 19.9198C17.1841 17.8098 17.4741 16.7098 17.8041 14.9098C18.1441 13.0998 18.2241 12.2399 18.2941 10.8699C18.3641 9.49985 18.3041 8.89986 18.1641 8.05985C18.0241 7.20986 17.8441 6.90984 17.6041 6.63984C17.3641 6.35984 17.1441 6.40984 16.9541 6.69984Z" fill="#F2F2F2" stroke="#F2F2F2"/>
<path d="M44.3946 8.40986C44.1646 8.39986 44.0646 8.35988 43.6446 8.67988C43.2246 9.00988 42.9646 9.21989 42.3046 10.0299C41.6446 10.8499 41.2846 11.3699 40.3446 12.7499C39.4046 14.1299 38.7846 15.0699 37.6146 16.9299C36.4346 18.7899 35.7246 19.9399 34.4846 22.0499C33.2446 24.1499 32.5446 25.3299 31.4146 27.4499C30.2846 29.5799 29.6846 30.7199 28.8346 32.6599C27.9846 34.6099 27.6046 35.5999 27.1646 37.1899C26.7246 38.7699 26.5846 39.4999 26.6346 40.5899C26.6746 41.6799 26.8546 42.1299 27.3946 42.6099C27.9346 43.0999 28.3846 43.1599 29.3446 43.0299C30.3146 42.8899 30.9546 42.6299 32.2246 41.9399C33.4946 41.2499 34.2246 40.6699 35.6846 39.5599C37.1446 38.4599 37.9946 37.6699 39.5146 36.4199C41.0346 35.1699 41.9546 34.4199 43.2846 33.2899C44.6146 32.1699 45.3246 31.5599 46.1646 30.7999C47.0146 30.0399 47.2846 29.7299 47.5246 29.4799C47.7646 29.2299 47.6446 29.2599 47.3946 29.5499C47.1346 29.8299 46.7746 30.1399 46.2346 30.9099C45.6946 31.6799 45.2546 32.3099 44.7146 33.3899C44.1646 34.4799 43.8646 35.2099 43.4946 36.3299C43.1246 37.4499 42.9346 38.0299 42.8546 38.9699C42.7746 39.9199 42.7746 40.3999 43.0946 41.0499C43.4246 41.7099 43.7346 41.9999 44.4746 42.2599C45.2046 42.5199 45.7346 42.5099 46.7746 42.3499C47.8146 42.1899 48.4246 41.9599 49.6546 41.4399C50.8946 40.9199 51.6246 40.5199 52.9646 39.7399C54.2946 38.9599 55.0346 38.4299 56.3146 37.5399C57.5946 36.6499 58.2646 36.0999 59.3446 35.2799C60.4146 34.4699 60.9646 34.0599 61.7046 33.4599C62.4446 32.8599 62.7446 32.5799 63.0346 32.2799C63.3246 31.9899 63.2846 31.8999 63.1646 31.9799C63.0546 32.0699 62.8046 32.2399 62.4546 32.6999C62.1046 33.1499 61.7946 33.5099 61.4246 34.2699C61.0546 35.0199 60.8546 35.5899 60.6146 36.4599C60.3646 37.3399 60.2546 37.7999 60.1946 38.6399C60.1446 39.4699 60.1246 39.9299 60.3546 40.6199C60.5846 41.3099 60.7946 41.6899 61.3546 42.0999C61.9146 42.5199 62.3446 42.6399 63.1646 42.6799C63.9846 42.7199 64.4546 42.6299 65.4446 42.2899C66.4346 41.9599 66.9746 41.6999 68.1346 41.0099C69.3046 40.3199 69.9446 39.8499 71.2646 38.8399C72.5846 37.8199 73.2946 37.1999 74.7446 35.9399C76.2046 34.6699 77.0046 33.9499 78.5146 32.5199C80.0246 31.0799 80.8046 30.2699 82.3046 28.7599C83.8046 27.2399 84.5546 26.4199 86.0046 24.9199C87.4546 23.4199 88.2546 22.6599 89.5646 21.2299C90.8646 19.7999 91.4846 19.0699 92.5246 17.7699C93.5546 16.4699 94.0646 15.8499 94.7246 14.7499C95.3946 13.6499 95.6546 13.1299 95.8546 12.2799C96.0646 11.4199 96.0246 11.0499 95.7446 10.4999C95.4746 9.94989 95.2046 9.62987 94.4946 9.53987C93.7846 9.44987 93.2346 9.52989 92.1946 10.0599C91.1646 10.5899 90.5846 11.0599 89.3046 12.1899C88.0246 13.3199 87.2846 14.0999 85.8046 15.7099C84.3246 17.3199 83.4346 18.2999 81.9246 20.2599C80.4046 22.2199 79.5546 23.3899 78.2346 25.5099C76.9046 27.6299 76.1846 28.7899 75.2746 30.8399C74.3746 32.8799 74.0046 33.9599 73.7146 35.7299C73.4346 37.4899 73.4946 38.3399 73.8646 39.6599C74.2346 40.9699 74.6346 41.5099 75.5746 42.2899C76.5146 43.0599 77.3146 43.2599 78.5546 43.5299C79.7846 43.7899 80.6646 43.7499 81.7346 43.6099C82.8046 43.4699 83.4846 43.1199 83.9046 42.8299C84.3146 42.5399 84.2546 42.3199 83.8046 42.1399C83.3546 41.9699 82.6646 42.0299 81.6746 41.9699C80.6846 41.8999 79.9146 41.9599 78.8546 41.8199C77.7946 41.6699 77.1146 41.7299 76.3646 41.2299C75.6246 40.7399 75.3446 40.3799 75.1146 39.3399C74.8946 38.2899 74.8746 37.5699 75.2246 36.0099C75.5746 34.4599 75.9446 33.4599 76.8546 31.5699C77.7746 29.6699 78.4846 28.5399 79.8146 26.5299C81.1346 24.5099 81.9746 23.3599 83.4746 21.4799C84.9746 19.5999 85.8646 18.6599 87.3146 17.0999C88.7546 15.5499 89.5346 14.8299 90.7046 13.7199C91.8746 12.6199 92.3946 12.1999 93.1646 11.5899C93.9346 10.9699 94.2046 10.7999 94.5646 10.6399C94.9246 10.4799 94.9246 10.5499 94.9446 10.7899C94.9646 11.0399 94.9546 11.2399 94.6546 11.8599C94.3546 12.4899 94.1246 12.9399 93.4346 13.9099C92.7546 14.8799 92.2646 15.4899 91.2446 16.7199C90.2146 17.9499 89.5946 18.6699 88.2946 20.0699C86.9946 21.4599 86.1946 22.1999 84.7346 23.6899C83.2846 25.1699 82.5246 25.9899 81.0246 27.4799C79.5246 28.9799 78.7446 29.7599 77.2446 31.1599C75.7346 32.5599 74.9346 33.2599 73.4946 34.4899C72.0646 35.7099 71.3546 36.3199 70.0846 37.2999C68.8046 38.2699 68.1946 38.7099 67.1446 39.3699C66.0846 40.0299 65.6046 40.2399 64.7946 40.5899C63.9946 40.9299 63.6446 41.0099 63.1046 41.1099C62.5546 41.1999 62.3546 41.2199 62.0746 41.0499C61.8046 40.8899 61.7646 40.7299 61.7346 40.2899C61.6946 39.8599 61.7446 39.5099 61.9046 38.8799C62.0646 38.2499 62.2146 37.8799 62.5346 37.1399C62.8546 36.3899 63.2046 35.9399 63.4946 35.1699C63.7946 34.3899 63.9746 33.9199 64.0246 33.2399C64.0746 32.5699 64.0146 32.1599 63.7446 31.7799C63.4646 31.4099 63.2346 31.2999 62.6446 31.3699C62.0646 31.4499 61.6846 31.6599 60.8146 32.1499C59.9446 32.6399 59.4146 33.0699 58.2946 33.8299C57.1846 34.5899 56.5046 35.1099 55.2346 35.9499C53.9646 36.7799 53.2346 37.2699 51.9546 37.9999C50.6746 38.7299 49.9546 39.0599 48.8346 39.5899C47.7146 40.1099 47.1646 40.3199 46.3446 40.6099C45.5246 40.8999 45.1746 41.0299 44.7246 41.0399C44.2846 41.0499 44.1846 41.0099 44.1246 40.6599C44.0546 40.3099 44.1546 39.9899 44.3946 39.2699C44.6346 38.5599 44.8546 38.0499 45.3346 37.0799C45.8146 36.1199 46.2646 35.5099 46.8046 34.4399C47.3346 33.3799 47.7146 32.7099 48.0046 31.7499C48.2846 30.7999 48.3646 30.2599 48.2246 29.6699C48.0946 29.0799 47.9346 28.8199 47.3346 28.7999C46.7446 28.7799 46.3146 28.9499 45.2646 29.5499C44.2246 30.1499 43.5146 30.7499 42.1046 31.8099C40.6946 32.8599 39.7746 33.6099 38.2346 34.8299C36.6946 36.0399 35.8046 36.7899 34.3946 37.8799C32.9846 38.9699 32.2746 39.4999 31.1846 40.2699C30.0946 41.0399 29.6146 41.3899 28.9546 41.7399C28.3046 42.0899 28.1446 42.2499 27.9246 42.0299C27.7146 41.8199 27.7246 41.5299 27.8746 40.6499C28.0146 39.7799 28.1546 39.1099 28.6646 37.6599C29.1746 36.1999 29.5446 35.2399 30.4146 33.3799C31.2846 31.5199 31.8846 30.3999 33.0346 28.3399C34.1946 26.2799 34.9146 25.1299 36.1846 23.0699C37.4546 21.0199 38.2046 19.8899 39.3846 18.0599C40.5746 16.2299 41.2046 15.3099 42.1146 13.9299C43.0146 12.5399 43.3846 12.0299 43.9046 11.1399C44.4246 10.2499 44.5246 9.94987 44.7046 9.47987C44.8846 8.99987 44.8646 8.96987 44.8046 8.75987C44.7346 8.54987 44.6246 8.42986 44.3946 8.40986Z" fill="#F2F2F2" stroke="#F2F2F2"/>
<path d="M130.789 8.0375C130.609 8.0175 130.609 7.9275 130.299 8.1275C129.999 8.3175 129.749 8.43749 129.269 9.02749C128.789 9.62749 128.569 10.0575 127.899 11.1075C127.219 12.1475 126.849 12.8175 125.889 14.2475C124.939 15.6675 124.349 16.5175 123.109 18.2275C121.879 19.9375 121.129 20.9275 119.709 22.7975C118.299 24.6675 117.479 25.6875 116.019 27.5675C114.559 29.4475 113.779 30.4875 112.419 32.2075C111.059 33.9375 110.309 34.7375 109.229 36.1875C108.139 37.6275 107.619 38.2975 106.979 39.4275C106.329 40.5675 106.089 41.0875 106.009 41.8575C105.929 42.6175 106.079 42.8775 106.579 43.2475C107.069 43.6075 107.469 43.7075 108.499 43.6675C109.539 43.6275 110.249 43.4975 111.749 43.0475C113.249 42.5975 114.159 42.1275 115.999 41.4175C117.839 40.7075 118.949 40.2475 120.969 39.4975C122.989 38.7575 124.159 38.3575 126.109 37.6675C128.069 36.9875 129.059 36.6475 130.749 36.0975C132.439 35.5475 133.259 35.3375 134.539 34.9075C135.829 34.4775 136.379 34.2875 137.169 33.9575C137.959 33.6275 138.259 33.4875 138.499 33.2575C138.739 33.0275 138.709 32.8875 138.379 32.8175C138.059 32.7475 137.729 32.7675 136.879 32.8875C136.029 33.0075 135.439 33.0875 134.109 33.4075C132.789 33.7275 131.959 33.9775 130.249 34.4775C128.529 34.9875 127.519 35.2975 125.529 35.9275C123.549 36.5575 122.359 36.9275 120.299 37.6375C118.249 38.3375 117.099 38.7675 115.259 39.4575C113.409 40.1375 112.489 40.5175 111.079 41.0475C109.669 41.5775 109.049 41.7875 108.209 42.0875C107.369 42.3975 107.139 42.5675 106.889 42.5775C106.639 42.5875 106.689 42.5875 106.959 42.1175C107.219 41.6475 107.509 41.2175 108.219 40.2275C108.939 39.2475 109.409 38.5775 110.519 37.1975C111.639 35.8175 112.409 35.0175 113.799 33.3175C115.189 31.6175 115.989 30.5875 117.469 28.7175C118.959 26.8475 119.789 25.8275 121.239 23.9675C122.679 22.1075 123.449 21.1175 124.719 19.3975C125.989 17.6875 126.589 16.8275 127.579 15.3875C128.569 13.9575 128.979 13.2875 129.649 12.2275C130.319 11.1675 130.579 10.7875 130.929 10.0975C131.269 9.4175 131.329 9.17751 131.379 8.79751C131.439 8.42751 131.319 8.3875 131.199 8.2275C131.089 8.0775 130.969 8.0575 130.789 8.0375Z" fill="#F2F2F2" stroke="#F2F2F2"/>
<path d="M162.459 18.5273C162.759 18.5373 162.939 18.3473 163.429 18.1073C163.929 17.8673 164.209 17.6673 164.949 17.3273C165.689 16.9873 166.139 16.7173 167.139 16.3973C168.129 16.0773 168.759 15.9173 169.929 15.7173C171.099 15.5173 171.759 15.4573 172.989 15.3873C174.219 15.3173 174.889 15.2873 176.079 15.3573C177.269 15.4273 177.929 15.5173 178.949 15.7373C179.979 15.9673 180.439 16.1073 181.179 16.4673C181.929 16.8273 182.259 17.0573 182.659 17.5373C183.049 18.0073 183.169 18.2373 183.149 18.8373C183.129 19.4473 183.039 19.8173 182.549 20.5773C182.059 21.3273 181.659 21.7673 180.699 22.6173C179.729 23.4773 179.029 23.9373 177.729 24.8373C176.419 25.7473 175.579 26.2973 174.159 27.1373C172.749 27.9873 171.929 28.3473 170.649 29.0673C169.359 29.7773 168.679 30.1473 167.729 30.7173C166.779 31.2773 166.409 31.4673 165.899 31.8873C165.389 32.3073 165.259 32.5573 165.189 32.8273C165.119 33.0873 165.459 33.1773 165.559 33.2173C165.659 33.2573 165.679 33.0573 165.669 33.0373C165.669 33.0173 165.379 33.1373 165.549 33.1273C165.719 33.1073 165.929 33.1673 166.519 32.9673C167.099 32.7673 167.479 32.5773 168.469 32.1173C169.459 31.6573 170.149 31.3073 171.479 30.6473C172.809 29.9873 173.649 29.6373 175.129 28.8073C176.609 27.9773 177.489 27.4373 178.869 26.4873C180.239 25.5273 180.979 25.0373 182.009 24.0273C183.039 23.0073 183.519 22.4373 184.029 21.3973C184.539 20.3473 184.609 19.7473 184.559 18.8073C184.509 17.8673 184.289 17.4373 183.759 16.6973C183.239 15.9573 182.809 15.6273 181.919 15.1073C181.039 14.5873 180.499 14.3973 179.349 14.0973C178.209 13.7873 177.499 13.6873 176.209 13.5873C174.919 13.4773 174.219 13.5173 172.899 13.5673C171.589 13.6173 170.909 13.6373 169.629 13.8173C168.359 13.9973 167.639 14.0973 166.509 14.4573C165.389 14.8173 164.829 15.1073 164.019 15.5973C163.219 16.0873 162.889 16.4273 162.479 16.9173C162.069 17.4073 161.969 17.7273 161.959 18.0473C161.959 18.3673 162.169 18.5173 162.459 18.5273Z" fill="#F2F2F2" stroke="#F2F2F2"/>
<path d="M187.678 28.7665C187.419 28.861 187.372 29.0219 187 29.4584C186.627 29.895 186.333 30.2302 185.806 30.9595C185.288 31.6886 184.958 32.2445 184.393 33.1145C183.818 33.9847 183.466 34.4509 182.951 35.31C182.446 36.1689 182.115 36.6548 181.857 37.3894C181.6 38.124 181.516 38.4555 181.655 38.9932C181.805 39.5306 182.02 39.8269 182.575 40.0873C183.119 40.3478 183.54 40.3905 184.398 40.2855C185.267 40.1803 185.763 39.9716 186.886 39.572C188.009 39.1723 188.655 38.911 190.014 38.2972C191.374 37.6834 192.167 37.2594 193.674 36.503C195.181 35.7366 196.053 35.3013 197.549 34.4851C199.045 33.6689 199.867 33.2144 201.143 32.412C202.429 31.5995 203.072 31.1582 203.949 30.4328C204.837 29.6972 205.201 29.3608 205.54 28.7448C205.89 28.1386 205.894 27.8184 205.676 27.3822C205.459 26.9359 205.134 26.6815 204.432 26.5538C203.739 26.4158 203.189 26.4254 202.194 26.7028C201.189 26.9804 200.574 27.3112 199.445 27.931C198.316 28.5508 197.643 28.9926 196.547 29.8119C195.462 30.6309 194.84 31.1119 193.985 32.0069C193.141 32.8918 192.719 33.3892 192.294 34.2668C191.86 35.1345 191.728 35.6069 191.831 36.3552C191.924 37.1137 192.161 37.5096 192.78 38.0389C193.41 38.568 193.884 38.7997 194.958 39.011C196.042 39.2321 196.762 39.2396 198.18 39.1248C199.589 39.0202 200.466 38.8549 202.039 38.4673C203.613 38.0698 204.487 37.7345 206.037 37.1574C207.587 36.5802 208.381 36.1963 209.8 35.5815C211.219 34.9566 211.964 34.6235 213.134 34.073C214.305 33.5325 214.911 33.2719 215.643 32.8491C216.366 32.4264 216.592 32.1824 216.768 31.9793C216.945 31.7662 216.804 31.7286 216.525 31.8135C216.247 31.8984 215.899 32.0545 215.376 32.4137C214.852 32.7729 214.387 33.051 213.906 33.6195C213.426 34.1879 213.145 34.6729 212.965 35.2562C212.785 35.8394 212.782 36.2095 212.997 36.5458C213.223 36.8919 213.465 36.9877 214.055 36.9874C214.655 36.9769 215.023 36.8505 215.977 36.5138C216.932 36.1871 217.546 35.8563 218.827 35.3439C220.108 34.8214 221.012 34.4556 222.383 33.9316C223.744 33.4077 224.561 33.1935 225.663 32.7242C226.775 32.2647 227.5 31.972 227.914 31.6247C228.328 31.2874 228.275 31.0983 227.743 31.0076C227.212 30.9269 226.453 31.0301 225.246 31.2012C224.039 31.3823 223.171 31.4975 221.718 31.9029C220.255 32.3085 219.271 32.6657 217.95 33.2089C216.629 33.762 215.986 34.1233 215.114 34.6386C214.233 35.144 213.938 35.3992 213.584 35.7554C213.23 36.1217 213.203 36.3122 213.346 36.4397C213.488 36.5572 213.798 36.5718 214.284 36.3533C214.781 36.1346 215.256 35.8763 215.787 35.3469C216.318 34.8176 216.629 34.3421 216.938 33.6966C217.237 33.0513 217.339 32.6094 217.291 32.1202C217.242 31.641 217.128 31.4129 216.686 31.2806C216.234 31.1585 215.915 31.2341 215.069 31.4789C214.223 31.7237 213.638 32.0039 212.437 32.495C211.245 32.9858 210.501 33.3489 209.101 33.9234C207.691 34.5081 206.907 34.8718 205.396 35.3983C203.895 35.9146 203.06 36.1892 201.575 36.5251C200.091 36.8711 199.263 36.9655 197.985 37.1079C196.707 37.2602 196.077 37.2712 195.187 37.2467C194.286 37.2225 193.955 37.1682 193.502 36.9661C193.058 36.7738 192.926 36.6561 192.94 36.2758C192.953 35.8855 193.098 35.6329 193.558 35.0448C194.018 34.4467 194.411 34.0298 195.238 33.3152C196.066 32.6007 196.668 32.1501 197.716 31.4517C198.764 30.7533 199.448 30.3713 200.478 29.8033C201.508 29.2352 202.074 28.9953 202.878 28.6212C203.681 28.2471 204.049 28.1307 204.506 27.9427C204.953 27.7549 205.111 27.6621 205.152 27.6814C205.192 27.6907 205.132 27.7317 204.698 28.0293C204.272 28.3168 203.907 28.5732 203.017 29.1488C202.117 29.7246 201.494 30.1556 200.227 30.8878C198.949 31.6202 198.147 32.0443 196.66 32.8104C195.173 33.5864 194.29 34.0119 192.793 34.7381C191.305 35.4642 190.522 35.8779 189.192 36.4612C187.872 37.0444 187.216 37.2459 186.163 37.6543C185.12 38.0726 184.643 38.2609 183.968 38.5327C183.292 38.8046 183.085 38.9382 182.796 39.0233C182.517 39.0981 182.477 39.1088 182.564 38.9273C182.651 38.7457 182.849 38.6323 183.24 38.1254C183.642 37.6183 183.984 37.1523 184.56 36.3921C185.147 35.6317 185.549 35.1846 186.165 34.3237C186.78 33.4629 187.2 32.9355 187.646 32.0876C188.091 31.2497 188.262 30.7366 188.391 30.1143C188.52 29.4819 188.426 29.2235 188.291 28.9558C188.146 28.6783 187.936 28.662 187.678 28.7665Z" fill="#F2F2F2" stroke="#F2F2F2"/>
<path d="M193.615 20.7284C193.615 20.7284 195.276 19.6385 195.262 19.5175C195.252 19.3965 194.93 19.2272 194.557 19.12C194.186 19.0163 193.781 19.0059 193.401 18.9886C193.017 18.9713 192.691 18.9541 192.643 19.0301C192.595 19.1062 190.761 21.2341 191.155 21.3723C191.55 21.5141 193.615 20.7284 193.615 20.7284Z" fill="#F2F2F2" stroke="#F2F2F2"/>
<path d="M167.345 21.3572C167.695 20.6572 167.925 20.4472 168.055 20.2572L167.575 19.5972C167.345 19.0682 168.485 19.6172 168.775 20.0672C169.065 20.5172 169.125 20.9272 169.025 21.8272C168.925 22.7272 168.765 23.3672 168.295 24.5872C167.825 25.8072 167.415 26.5072 166.675 27.9172C165.945 29.3172 165.455 30.1372 164.625 31.5972C163.795 33.0572 163.345 33.8372 162.535 35.1972C161.715 36.5572 161.265 37.2272 160.555 38.3972C159.845 39.5572 159.555 40.1872 159.005 41.0272L158.987 41.0543C158.45 41.8642 158.24 42.1812 157.815 42.5472C157.385 42.9172 157.185 42.8672 156.875 42.8672C156.555 42.8672 156.405 42.7372 156.235 42.5472C156.075 42.3572 155.895 42.0672 156.045 41.8972C156.196 41.7455 156.761 41.6567 156.99 41.7161C157.146 41.3525 157.276 41.0129 157.655 40.2472L157.678 40.1998C158.096 39.3533 158.417 38.7053 159.065 37.5272C159.725 36.3372 160.195 35.6572 160.975 34.2872C161.745 32.9172 162.155 32.1272 162.925 30.6672L163.001 30.5213C163.725 29.1492 164.167 28.3106 164.825 26.9772C165.505 25.5972 165.805 24.8872 166.305 23.7572C166.805 22.6372 166.995 22.0572 167.345 21.3572Z" fill="#F2F2F2"/>
<path d="M168.055 20.2572C167.925 20.4472 167.695 20.6572 167.345 21.3572C166.995 22.0572 166.805 22.6372 166.305 23.7572C165.805 24.8872 165.505 25.5972 164.825 26.9772C164.145 28.3572 163.695 29.2072 162.925 30.6672C162.155 32.1272 161.745 32.9172 160.975 34.2872C160.195 35.6572 159.725 36.3372 159.065 37.5272C158.405 38.7272 158.085 39.3772 157.655 40.2472C157.225 41.1172 157.115 41.4372 156.925 41.8672C156.745 42.2972 156.715 42.3072 156.735 42.3972C156.765 42.4772 156.995 42.4172 157.055 42.2772C157.115 42.1472 157.225 41.7972 157.025 41.7272C156.825 41.6472 156.205 41.7372 156.045 41.8972C155.895 42.0672 156.075 42.3572 156.235 42.5472C156.405 42.7372 156.555 42.8672 156.875 42.8672C157.185 42.8672 157.385 42.9172 157.815 42.5472C158.245 42.1772 158.455 41.8572 159.005 41.0272C159.555 40.1872 159.845 39.5572 160.555 38.3972C161.265 37.2272 161.715 36.5572 162.535 35.1972C163.345 33.8372 163.795 33.0572 164.625 31.5972C165.455 30.1372 165.945 29.3172 166.675 27.9172C167.415 26.5072 167.825 25.8072 168.295 24.5872C168.765 23.3672 168.925 22.7272 169.025 21.8272C169.125 20.9272 169.065 20.5172 168.775 20.0672C168.485 19.6172 167.345 19.0682 167.575 19.5972L168.055 20.2572Z" stroke="#F2F2F2"/>
<path d="M145.84 30.2601C145.846 30.2796 145.851 30.2991 145.855 30.3186C146.129 30.4381 146.259 30.6805 146.35 31.0801C146.47 31.6501 146.31 32.2201 146.05 33.0801C145.8 33.9401 145.45 34.5301 145.06 35.3801C144.67 36.2201 144.36 36.6701 144.1 37.2901C143.84 37.9201 143.75 38.2101 143.75 38.5201C143.76 38.8201 143.79 38.8701 144.14 38.8101C144.48 38.7501 144.75 38.5901 145.47 38.2201C146.19 37.8601 147.948 37.1601 148.988 36.4801C150.028 35.8101 150.39 35.8301 151.67 34.8701C153.301 33.647 152.274 34.5076 153.69 33.2801C155.733 31.5097 154.629 32.5779 156.61 30.7401C157.486 29.9504 158.488 29.3802 158.488 29.8712C158.488 30.3622 157.988 31.3802 157.74 31.9001C157.492 32.4199 155.845 34.1004 154.988 34.8802C154.197 35.6003 153.988 35.6418 152.89 36.4801C151.58 37.4801 150.648 37.8401 149.488 38.5201C148.328 39.2001 147.04 39.6301 146.07 39.8801C145.11 40.1301 144.65 40.1501 143.98 39.9501C143.31 39.7601 143.04 39.5001 142.71 38.9001C142.39 38.3001 142.33 37.8501 142.36 36.9601C142.39 36.0701 142.5 35.4101 142.87 34.4501C143.108 33.8495 143.373 33.3821 143.665 32.9424C143.148 33.3887 142.592 33.8411 141.81 34.4601C140.66 35.3801 139.86 35.9801 138.63 36.8901C137.4 37.7901 136.76 38.3301 135.68 39.0001C134.6 39.6701 134.06 39.9801 133.23 40.2401C132.39 40.4901 131.93 40.4701 131.49 40.2501C131.05 40.0401 130.92 39.7301 131.02 39.1501C131.13 38.5701 131.38 38.1601 132.01 37.3401C132.64 36.5201 133.16 36.0001 134.17 35.0501C135.18 34.1101 135.87 33.5001 137.06 32.5901C138.24 31.6901 138.93 31.2001 140.09 30.5401C141.24 29.8801 141.88 29.6001 142.83 29.3101C143.78 29.0201 144.23 28.9101 144.83 29.1001C145.44 29.3001 145.7 29.7301 145.84 30.2601Z" fill="#F2F2F2"/>
<path d="M144.42 32.3001C144.77 32.2901 145.25 32.1501 145.54 31.7401C145.82 31.3401 145.99 30.7901 145.84 30.2601C145.7 29.7301 145.44 29.3001 144.83 29.1001C144.23 28.9101 143.78 29.0201 142.83 29.3101C141.88 29.6001 141.24 29.8801 140.09 30.5401C138.93 31.2001 138.24 31.6901 137.06 32.5901C135.87 33.5001 135.18 34.1101 134.17 35.0501C133.16 36.0001 132.64 36.5201 132.01 37.3401C131.38 38.1601 131.13 38.5701 131.02 39.1501C130.92 39.7301 131.05 40.0401 131.49 40.2501C131.93 40.4701 132.39 40.4901 133.23 40.2401C134.06 39.9801 134.6 39.6701 135.68 39.0001C136.76 38.3301 137.4 37.7901 138.63 36.8901C139.86 35.9801 140.66 35.3801 141.81 34.4601C142.96 33.5501 143.62 33.0001 144.39 32.3001C145.16 31.6101 145.43 31.2501 145.65 30.9701C145.87 30.7001 145.79 30.6701 145.5 30.9101C145.22 31.1501 144.75 31.4501 144.22 32.1601C143.7 32.8701 143.25 33.4901 142.87 34.4501C142.5 35.4101 142.39 36.0701 142.36 36.9601C142.33 37.8501 142.39 38.3001 142.71 38.9001C143.04 39.5001 143.31 39.7601 143.98 39.9501C144.65 40.1501 145.11 40.1301 146.07 39.8801C147.04 39.6301 148.328 39.2001 149.488 38.5201C150.648 37.8401 151.58 37.4801 152.89 36.4801C153.988 35.6418 154.197 35.6003 154.988 34.8802C155.845 34.1004 157.492 32.4199 157.74 31.9001C157.988 31.3802 158.488 30.3622 158.488 29.8712C158.488 29.3802 157.486 29.9504 156.61 30.7401C154.629 32.5779 155.733 31.5097 153.69 33.2801C152.274 34.5076 153.301 33.647 151.67 34.8701C150.39 35.8301 150.028 35.8101 148.988 36.4801C147.948 37.1601 146.19 37.8601 145.47 38.2201C144.75 38.5901 144.48 38.7501 144.14 38.8101C143.79 38.8701 143.76 38.8201 143.75 38.5201C143.75 38.2101 143.84 37.9201 144.1 37.2901C144.36 36.6701 144.67 36.2201 145.06 35.3801C145.45 34.5301 145.8 33.9401 146.05 33.0801C146.31 32.2201 146.47 31.6501 146.35 31.0801C146.22 30.5101 146.01 30.2601 145.42 30.2301C144.84 30.2001 144.38 30.4001 143.41 30.9201C142.45 31.4401 141.8 31.9901 140.59 32.8301C139.38 33.6701 138.59 34.2601 137.36 35.1301C136.13 36.0001 135.44 36.4601 134.45 37.1801C133.47 37.8901 133.02 38.2301 132.44 38.7201C131.85 39.2101 131.66 39.4501 131.54 39.6301C131.42 39.8001 131.51 39.8201 131.85 39.5901C132.18 39.3601 132.5 39.0901 133.22 38.4701C133.94 37.8501 134.43 37.3301 135.44 36.5001C136.46 35.6601 137.14 35.0901 138.29 34.2801C139.44 33.4601 140.13 33.0701 141.19 32.4401C142.25 31.8101 142.88 31.5501 143.61 31.1201C144.33 30.6901 144.62 30.4701 144.83 30.2801C145.04 30.0901 144.84 30.1001 144.66 30.1901C144.48 30.2701 144.11 30.4001 143.93 30.7201C143.75 31.0401 143.67 31.4701 143.77 31.7901C143.87 32.1001 144.07 32.3101 144.42 32.3001Z" stroke="#F2F2F2"/>
</svg>
