<svg width="232" height="49" viewBox="0 0 232 49" fill="none" xmlns="http://www.w3.org/2000/svg">
<path d="M16.9541 6.33485C16.7741 6.62485 16.8041 6.90484 16.6741 7.70484C16.5541 8.50484 16.5141 9.02484 16.3341 10.3248C16.1541 11.6148 16.1141 12.4249 15.7841 14.1649C15.4641 15.9149 15.2541 16.9848 14.7241 19.0448C14.1841 21.1148 13.8541 22.2448 13.1341 24.4848C12.4041 26.7348 11.9541 27.9849 11.0741 30.2749C10.2041 32.5549 9.68415 33.7549 8.76415 35.9149C7.84415 38.0649 7.31415 39.2349 6.46415 41.0349C5.61415 42.8349 5.17415 43.6749 4.53415 44.9149C3.88415 46.1549 3.58414 46.6949 3.22414 47.2549C2.85414 47.8249 2.78415 48.0149 2.69415 47.7449C2.61415 47.4749 2.66414 47.0849 2.79414 45.9049C2.92414 44.7249 3.03414 43.7749 3.34414 41.8349C3.65414 39.8949 3.79415 38.6049 4.32415 36.2149C4.85415 33.8149 5.21414 32.4048 6.00414 29.8648C6.80414 27.3248 7.26414 25.9549 8.29414 23.5049C9.31414 21.0449 9.89414 19.8148 11.1241 17.5848C12.3541 15.3548 13.0741 14.2649 14.4441 12.3449C15.8041 10.4149 16.5441 9.48486 17.9541 7.97486C19.3741 6.46486 20.1041 5.78484 21.5041 4.79484C22.8941 3.79484 23.6141 3.44484 24.9241 2.98484C26.2441 2.52484 26.9241 2.47485 28.0541 2.49485C29.1941 2.52485 29.7641 2.68486 30.6041 3.12486C31.4541 3.57486 31.8241 3.91486 32.2941 4.72486C32.7641 5.52486 32.9141 6.01487 32.9441 7.16487C32.9741 8.30487 32.9041 8.96486 32.4441 10.4349C31.9741 11.8949 31.6041 12.7549 30.6241 14.4649C29.6341 16.1749 28.9641 17.1749 27.5141 18.9749C26.0541 20.7849 25.1141 21.7748 23.3641 23.4848C21.6041 25.1948 20.5341 26.0548 18.7341 27.5148C16.9241 28.9748 15.9041 29.6849 14.3541 30.7749C12.8041 31.8549 11.9641 32.2949 10.9941 32.9449C10.0141 33.5849 9.60414 33.8248 9.47414 34.0148C9.33414 34.1948 9.50415 34.2348 10.3141 33.8648C11.1241 33.4948 12.1241 33.0349 13.5241 32.1649C14.9241 31.3049 15.9641 30.5848 17.3141 29.5448C18.6641 28.5048 19.7741 27.6249 20.2841 26.9649C20.8041 26.3049 20.7041 26.1149 19.8741 26.2549C19.0341 26.3949 17.6541 26.8649 16.1141 27.6549C14.5741 28.4549 13.4941 29.1848 12.1641 30.2348C10.8441 31.2848 10.0241 32.0849 9.47414 32.9149C8.92414 33.7449 9.00414 34.1349 9.43414 34.3849C9.85414 34.6349 10.4341 34.6048 11.6141 34.1748C12.7841 33.7348 13.6541 33.2449 15.3041 32.1949C16.9541 31.1549 17.9941 30.4049 19.8641 28.9349C21.7341 27.4649 22.8441 26.5949 24.6741 24.8449C26.5041 23.0949 27.4941 22.0749 29.0141 20.1849C30.5341 18.2949 31.2441 17.2549 32.2741 15.4049C33.3041 13.5549 33.7041 12.6049 34.1641 10.9349C34.6241 9.27486 34.6841 8.46486 34.5641 7.06486C34.4441 5.66486 34.2241 4.99484 33.5641 3.95484C32.9141 2.90484 32.3841 2.42485 31.2941 1.83485C30.2041 1.25485 29.4741 1.07484 28.1041 1.01484C26.7341 0.954842 25.9441 1.06486 24.4441 1.56486C22.9441 2.05486 22.1341 2.45486 20.6041 3.50486C19.0641 4.56486 18.2741 5.27486 16.7641 6.84486C15.2641 8.41486 14.4941 9.37487 13.0641 11.3549C11.6341 13.3349 10.9041 14.4549 9.61415 16.7449C8.33415 19.0349 7.72415 20.2948 6.64415 22.8048C5.55415 25.3048 5.05414 26.6849 4.18414 29.2749C3.31414 31.8649 2.89414 33.2849 2.29414 35.7449C1.70414 38.1949 1.44415 39.5048 1.21415 41.5448C0.974147 43.5948 0.924146 44.6148 1.12415 45.9548C1.32415 47.2848 1.64414 47.8149 2.20414 48.2149C2.76414 48.6249 3.20414 48.4848 3.93414 47.9848C4.66414 47.4748 5.03415 46.9349 5.85415 45.6949C6.66415 44.4549 7.08414 43.5949 8.00414 41.7849C8.91414 39.9749 9.45414 38.7949 10.4141 36.6249C11.3741 34.4549 11.8841 33.2449 12.7841 30.9349C13.6941 28.6249 14.1541 27.3548 14.9141 25.0748C15.6841 22.8048 16.0341 21.6548 16.6141 19.5548C17.1841 17.4448 17.4741 16.3448 17.8041 14.5448C18.1441 12.7348 18.2241 11.8749 18.2941 10.5049C18.3641 9.13486 18.3041 8.53486 18.1641 7.69486C18.0241 6.84486 17.8441 6.54485 17.6041 6.27485C17.3641 5.99485 17.1441 6.04485 16.9541 6.33485Z" fill="#F2F2F2" stroke="#F2F2F2"/>
<path d="M44.3946 8.04487C44.1646 8.03487 44.0646 7.99489 43.6446 8.31489C43.2246 8.64489 42.9646 8.8549 42.3046 9.6649C41.6446 10.4849 41.2846 11.0049 40.3446 12.3849C39.4046 13.7649 38.7846 14.7049 37.6146 16.5649C36.4346 18.4249 35.7246 19.5749 34.4846 21.6849C33.2446 23.7849 32.5446 24.9649 31.4146 27.0849C30.2846 29.2149 29.6846 30.3549 28.8346 32.2949C27.9846 34.2449 27.6046 35.2349 27.1646 36.8249C26.7246 38.4049 26.5846 39.1349 26.6346 40.2249C26.6746 41.3149 26.8546 41.7649 27.3946 42.2449C27.9346 42.7349 28.3846 42.7949 29.3446 42.6649C30.3146 42.5249 30.9546 42.2649 32.2246 41.5749C33.4946 40.8849 34.2246 40.3049 35.6846 39.1949C37.1446 38.0949 37.9946 37.3049 39.5146 36.0549C41.0346 34.8049 41.9546 34.0549 43.2846 32.9249C44.6146 31.8049 45.3246 31.1949 46.1646 30.4349C47.0146 29.6749 47.2846 29.3649 47.5246 29.1149C47.7646 28.8649 47.6446 28.8949 47.3946 29.1849C47.1346 29.4649 46.7746 29.7749 46.2346 30.5449C45.6946 31.3149 45.2546 31.9449 44.7146 33.0249C44.1646 34.1149 43.8646 34.8449 43.4946 35.9649C43.1246 37.0849 42.9346 37.6649 42.8546 38.6049C42.7746 39.5549 42.7746 40.0349 43.0946 40.6849C43.4246 41.3449 43.7346 41.6349 44.4746 41.8949C45.2046 42.1549 45.7346 42.1449 46.7746 41.9849C47.8146 41.8249 48.4246 41.5949 49.6546 41.0749C50.8946 40.5549 51.6246 40.1549 52.9646 39.3749C54.2946 38.5949 55.0346 38.0649 56.3146 37.1749C57.5946 36.2849 58.2646 35.7349 59.3446 34.9149C60.4146 34.1049 60.9646 33.6949 61.7046 33.0949C62.4446 32.4949 62.7446 32.2149 63.0346 31.9149C63.3246 31.6249 63.2846 31.5349 63.1646 31.6149C63.0546 31.7049 62.8046 31.8749 62.4546 32.3349C62.1046 32.7849 61.7946 33.1449 61.4246 33.9049C61.0546 34.6549 60.8546 35.2249 60.6146 36.0949C60.3646 36.9749 60.2546 37.4349 60.1946 38.2749C60.1446 39.1049 60.1246 39.5649 60.3546 40.2549C60.5846 40.9449 60.7946 41.3249 61.3546 41.7349C61.9146 42.1549 62.3446 42.2749 63.1646 42.3149C63.9846 42.3549 64.4546 42.2649 65.4446 41.9249C66.4346 41.5949 66.9746 41.3349 68.1346 40.6449C69.3046 39.9549 69.9446 39.4849 71.2646 38.4749C72.5846 37.4549 73.2946 36.8349 74.7446 35.5749C76.2046 34.3049 77.0046 33.5849 78.5146 32.1549C80.0246 30.7149 80.8046 29.9049 82.3046 28.3949C83.8046 26.8749 84.5546 26.0549 86.0046 24.5549C87.4546 23.0549 88.2546 22.2949 89.5646 20.8649C90.8646 19.4349 91.4846 18.7049 92.5246 17.4049C93.5546 16.1049 94.0646 15.4849 94.7246 14.3849C95.3946 13.2849 95.6546 12.7649 95.8546 11.9149C96.0646 11.0549 96.0246 10.6849 95.7446 10.1349C95.4746 9.5849 95.2046 9.26488 94.4946 9.17488C93.7846 9.08488 93.2346 9.1649 92.1946 9.6949C91.1646 10.2249 90.5846 10.6949 89.3046 11.8249C88.0246 12.9549 87.2846 13.7349 85.8046 15.3449C84.3246 16.9549 83.4346 17.9349 81.9246 19.8949C80.4046 21.8549 79.5546 23.0249 78.2346 25.1449C76.9046 27.2649 76.1846 28.4249 75.2746 30.4749C74.3746 32.5149 74.0046 33.5949 73.7146 35.3649C73.4346 37.1249 73.4946 37.9749 73.8646 39.2949C74.2346 40.6049 74.6346 41.1449 75.5746 41.9249C76.5146 42.6949 77.3146 42.8949 78.5546 43.1649C79.7846 43.4249 80.6646 43.3849 81.7346 43.2449C82.8046 43.1049 83.4846 42.7549 83.9046 42.4649C84.3146 42.1749 84.2546 41.9549 83.8046 41.7749C83.3546 41.6049 82.6646 41.6649 81.6746 41.6049C80.6846 41.5349 79.9146 41.5949 78.8546 41.4549C77.7946 41.3049 77.1146 41.3649 76.3646 40.8649C75.6246 40.3749 75.3446 40.0149 75.1146 38.9749C74.8946 37.9249 74.8746 37.2049 75.2246 35.6449C75.5746 34.0949 75.9446 33.0949 76.8546 31.2049C77.7746 29.3049 78.4846 28.1749 79.8146 26.1649C81.1346 24.1449 81.9746 22.9949 83.4746 21.1149C84.9746 19.2349 85.8646 18.2949 87.3146 16.7349C88.7546 15.1849 89.5346 14.4649 90.7046 13.3549C91.8746 12.2549 92.3946 11.8349 93.1646 11.2249C93.9346 10.6049 94.2046 10.4349 94.5646 10.2749C94.9246 10.1149 94.9246 10.1849 94.9446 10.4249C94.9646 10.6749 94.9546 10.8749 94.6546 11.4949C94.3546 12.1249 94.1246 12.5749 93.4346 13.5449C92.7546 14.5149 92.2646 15.1249 91.2446 16.3549C90.2146 17.5849 89.5946 18.3049 88.2946 19.7049C86.9946 21.0949 86.1946 21.8349 84.7346 23.3249C83.2846 24.8049 82.5246 25.6249 81.0246 27.1149C79.5246 28.6149 78.7446 29.3949 77.2446 30.7949C75.7346 32.1949 74.9346 32.8949 73.4946 34.1249C72.0646 35.3449 71.3546 35.9549 70.0846 36.9349C68.8046 37.9049 68.1946 38.3449 67.1446 39.0049C66.0846 39.6649 65.6046 39.8749 64.7946 40.2249C63.9946 40.5649 63.6446 40.6449 63.1046 40.7449C62.5546 40.8349 62.3546 40.8549 62.0746 40.6849C61.8046 40.5249 61.7646 40.3649 61.7346 39.9249C61.6946 39.4949 61.7446 39.1449 61.9046 38.5149C62.0646 37.8849 62.2146 37.5149 62.5346 36.7749C62.8546 36.0249 63.2046 35.5749 63.4946 34.8049C63.7946 34.0249 63.9746 33.5549 64.0246 32.8749C64.0746 32.2049 64.0146 31.7949 63.7446 31.4149C63.4646 31.0449 63.2346 30.9349 62.6446 31.0049C62.0646 31.0849 61.6846 31.2949 60.8146 31.7849C59.9446 32.2749 59.4146 32.7049 58.2946 33.4649C57.1846 34.2249 56.5046 34.7449 55.2346 35.5849C53.9646 36.4149 53.2346 36.9049 51.9546 37.6349C50.6746 38.3649 49.9546 38.6949 48.8346 39.2249C47.7146 39.7449 47.1646 39.9549 46.3446 40.2449C45.5246 40.5349 45.1746 40.6649 44.7246 40.6749C44.2846 40.6849 44.1846 40.6449 44.1246 40.2949C44.0546 39.9449 44.1546 39.6249 44.3946 38.9049C44.6346 38.1949 44.8546 37.6849 45.3346 36.7149C45.8146 35.7549 46.2646 35.1449 46.8046 34.0749C47.3346 33.0149 47.7146 32.3449 48.0046 31.3849C48.2846 30.4349 48.3646 29.8949 48.2246 29.3049C48.0946 28.7149 47.9346 28.4549 47.3346 28.4349C46.7446 28.4149 46.3146 28.5849 45.2646 29.1849C44.2246 29.7849 43.5146 30.3849 42.1046 31.4449C40.6946 32.4949 39.7746 33.2449 38.2346 34.4649C36.6946 35.6749 35.8046 36.4249 34.3946 37.5149C32.9846 38.6049 32.2746 39.1349 31.1846 39.9049C30.0946 40.6749 29.6146 41.0249 28.9546 41.3749C28.3046 41.7249 28.1446 41.8849 27.9246 41.6649C27.7146 41.4549 27.7246 41.1649 27.8746 40.2849C28.0146 39.4149 28.1546 38.7449 28.6646 37.2949C29.1746 35.8349 29.5446 34.8749 30.4146 33.0149C31.2846 31.1549 31.8846 30.0349 33.0346 27.9749C34.1946 25.9149 34.9146 24.7649 36.1846 22.7049C37.4546 20.6549 38.2046 19.5249 39.3846 17.6949C40.5746 15.8649 41.2046 14.9449 42.1146 13.5649C43.0146 12.1749 43.3846 11.6649 43.9046 10.7749C44.4246 9.88489 44.5246 9.58488 44.7046 9.11488C44.8846 8.63488 44.8646 8.60488 44.8046 8.39488C44.7346 8.18488 44.6246 8.06487 44.3946 8.04487Z" fill="#F2F2F2" stroke="#F2F2F2"/>
<path d="M132.789 6.92712C132.609 6.90712 132.609 6.81712 132.299 7.01712C131.999 7.20712 131.749 7.32711 131.269 7.91711C130.789 8.51711 130.569 8.94713 129.899 9.99713C129.219 11.0371 128.849 11.7071 127.889 13.1371C126.939 14.5571 126.349 15.4071 125.109 17.1171C123.879 18.8271 123.129 19.8171 121.709 21.6871C120.299 23.5571 119.479 24.5771 118.019 26.4571C116.559 28.3371 115.779 29.3771 114.419 31.0971C113.059 32.8271 112.309 33.6271 111.229 35.0771C110.139 36.5171 109.619 37.1871 108.979 38.3171C108.329 39.4571 108.089 39.9771 108.009 40.7471C107.929 41.5071 108.079 41.7671 108.579 42.1371C109.069 42.4971 109.469 42.5971 110.499 42.5571C111.539 42.5171 112.249 42.3871 113.749 41.9371C115.249 41.4871 116.159 41.0171 117.999 40.3071C119.839 39.5971 120.949 39.1371 122.969 38.3871C124.989 37.6471 126.159 37.2471 128.109 36.5571C130.069 35.8771 131.059 35.5371 132.749 34.9871C134.439 34.4371 135.259 34.2271 136.539 33.7971C137.829 33.3671 138.379 33.1771 139.169 32.8471C139.959 32.5171 140.259 32.3771 140.499 32.1471C140.739 31.9171 140.709 31.7771 140.379 31.7071C140.059 31.6371 139.729 31.6571 138.879 31.7771C138.029 31.8971 137.439 31.9771 136.109 32.2971C134.789 32.6171 133.959 32.8671 132.249 33.3671C130.529 33.8771 129.519 34.1871 127.529 34.8171C125.549 35.4471 124.359 35.8171 122.299 36.5271C120.249 37.2271 119.099 37.6571 117.259 38.3471C115.409 39.0271 114.489 39.4071 113.079 39.9371C111.669 40.4671 111.049 40.6771 110.209 40.9771C109.369 41.2871 109.139 41.4571 108.889 41.4671C108.639 41.4771 108.689 41.4771 108.959 41.0071C109.219 40.5371 109.509 40.1071 110.219 39.1171C110.939 38.1371 111.409 37.4671 112.519 36.0871C113.639 34.7071 114.409 33.9071 115.799 32.2071C117.189 30.5071 117.989 29.4771 119.469 27.6071C120.959 25.7371 121.789 24.7171 123.239 22.8571C124.679 20.9971 125.449 20.0071 126.719 18.2871C127.989 16.5771 128.589 15.7171 129.579 14.2771C130.569 12.8471 130.979 12.1771 131.649 11.1171C132.319 10.0571 132.579 9.67712 132.929 8.98712C133.269 8.30712 133.329 8.06713 133.379 7.68713C133.439 7.31713 133.319 7.27712 133.199 7.11712C133.089 6.96712 132.969 6.94712 132.789 6.92712Z" fill="#F2F2F2" stroke="#F2F2F2"/>
<path d="M146.69 29.8869C147.04 29.8769 147.52 29.7369 147.81 29.3269C148.09 28.9269 148.26 28.3769 148.11 27.8469C147.97 27.3169 147.71 26.8869 147.1 26.6869C146.5 26.4969 146.05 26.6069 145.1 26.8969C144.15 27.1869 143.51 27.4669 142.36 28.1269C141.2 28.7869 140.51 29.2769 139.33 30.1769C138.14 31.0869 137.45 31.6969 136.44 32.6369C135.43 33.5869 134.91 34.1069 134.28 34.9269C133.65 35.7469 133.4 36.1569 133.29 36.7369C133.19 37.3169 133.32 37.6269 133.76 37.8369C134.2 38.0569 134.66 38.0769 135.5 37.8269C136.33 37.5669 136.87 37.2569 137.95 36.5869C139.03 35.9169 139.67 35.3769 140.9 34.4769C142.13 33.5669 142.93 32.9669 144.08 32.0469C145.23 31.1369 145.89 30.5869 146.66 29.8869C147.43 29.1969 147.7 28.8369 147.92 28.5569C148.14 28.2869 148.06 28.2569 147.77 28.4969C147.49 28.7369 147.02 29.0369 146.49 29.7469C145.97 30.4569 145.52 31.0769 145.14 32.0369C144.77 32.9969 144.66 33.6569 144.63 34.5469C144.6 35.4369 144.66 35.8869 144.98 36.4869C145.31 37.0869 145.58 37.3469 146.25 37.5369C146.92 37.7369 147.38 37.7169 148.34 37.4669C149.31 37.2169 149.91 36.9769 151.07 36.2969C152.23 35.6169 152.85 35.0669 154.16 34.0669C155.47 33.0569 156.23 32.4469 157.64 31.2769C159.04 30.1169 159.84 29.4669 161.19 28.2469C162.53 27.0269 163.2 26.3269 164.36 25.1769C165.52 24.0269 166.1 23.4169 167.01 22.4869C167.92 21.5569 168.32 21.1469 168.92 20.5169C169.52 19.8869 169.78 19.5969 170.02 19.3269C170.26 19.0569 170.24 18.9669 170.12 19.1469C169.99 19.3369 169.76 19.5469 169.41 20.2469C169.06 20.9469 168.87 21.5269 168.37 22.6469C167.87 23.7769 167.57 24.4869 166.89 25.8669C166.21 27.2469 165.76 28.0969 164.99 29.5569C164.22 31.0169 163.81 31.8069 163.04 33.1769C162.26 34.5469 161.79 35.2269 161.13 36.4169C160.47 37.6169 160.15 38.2669 159.72 39.1369C159.29 40.0069 159.18 40.3269 158.99 40.7569C158.81 41.1869 158.78 41.1969 158.8 41.2869C158.83 41.3669 159.06 41.3069 159.12 41.1669C159.18 41.0369 159.29 40.6869 159.09 40.6169C158.89 40.5369 158.27 40.6269 158.11 40.7869C157.96 40.9569 158.14 41.2469 158.3 41.4369C158.47 41.6269 158.62 41.7569 158.94 41.7569C159.25 41.7569 159.45 41.8069 159.88 41.4369C160.31 41.0669 160.52 40.7469 161.07 39.9169C161.62 39.0769 161.91 38.4469 162.62 37.2869C163.33 36.1169 163.78 35.4469 164.6 34.0869C165.41 32.7269 165.86 31.9469 166.69 30.4869C167.52 29.0269 168.01 28.2069 168.74 26.8069C169.48 25.3969 169.89 24.6969 170.36 23.4769C170.83 22.2569 170.99 21.6169 171.09 20.7169C171.19 19.8169 171.13 19.4069 170.84 18.9569C170.55 18.5069 170.21 18.3969 169.64 18.4869C169.06 18.5769 168.71 18.8569 167.96 19.4269C167.2 19.9969 166.84 20.4269 165.88 21.3269C164.91 22.2269 164.33 22.8069 163.15 23.9169C161.97 25.0269 161.31 25.6969 159.96 26.8669C158.61 28.0369 157.81 28.6469 156.41 29.7669C155 30.8869 154.22 31.4969 152.94 32.4569C151.66 33.4169 151.05 33.8969 150.01 34.5669C148.97 35.2469 148.46 35.4469 147.74 35.8069C147.02 36.1769 146.75 36.3369 146.41 36.3969C146.06 36.4569 146.03 36.4069 146.02 36.1069C146.02 35.7969 146.11 35.5069 146.37 34.8769C146.63 34.2569 146.94 33.8069 147.33 32.9669C147.72 32.1169 148.07 31.5269 148.32 30.6669C148.58 29.8069 148.74 29.2369 148.62 28.6669C148.49 28.0969 148.28 27.8469 147.69 27.8169C147.11 27.7869 146.65 27.9869 145.68 28.5069C144.72 29.0269 144.07 29.5769 142.86 30.4169C141.65 31.2569 140.86 31.8469 139.63 32.7169C138.4 33.5869 137.71 34.0469 136.72 34.7669C135.74 35.4769 135.29 35.8169 134.71 36.3069C134.12 36.7969 133.93 37.0369 133.81 37.2169C133.69 37.3869 133.78 37.4069 134.12 37.1769C134.45 36.9469 134.77 36.6769 135.49 36.0569C136.21 35.4369 136.7 34.9169 137.71 34.0869C138.73 33.2469 139.41 32.6769 140.56 31.8669C141.71 31.0469 142.4 30.6569 143.46 30.0269C144.52 29.3969 145.15 29.1369 145.88 28.7069C146.6 28.2769 146.89 28.0569 147.1 27.8669C147.31 27.6769 147.11 27.6869 146.93 27.7769C146.75 27.8569 146.38 27.9869 146.2 28.3069C146.02 28.6269 145.94 29.0569 146.04 29.3769C146.14 29.6869 146.34 29.8969 146.69 29.8869Z" fill="#F2F2F2" stroke="#F2F2F2"/>
<path d="M164.461 17.4169C164.761 17.4269 164.941 17.237 165.431 16.997C165.931 16.757 166.211 16.557 166.951 16.217C167.691 15.877 168.141 15.6069 169.141 15.2869C170.131 14.9669 170.761 14.8069 171.931 14.6069C173.101 14.4069 173.761 14.347 174.991 14.277C176.221 14.207 176.891 14.177 178.081 14.247C179.271 14.317 179.931 14.4069 180.951 14.6269C181.981 14.8569 182.441 14.9969 183.181 15.3569C183.931 15.7169 184.261 15.9469 184.661 16.4269C185.051 16.8969 185.171 17.1269 185.151 17.7269C185.131 18.3369 185.041 18.707 184.551 19.467C184.061 20.217 183.661 20.6569 182.701 21.5069C181.731 22.3669 181.031 22.8269 179.731 23.7269C178.421 24.6369 177.581 25.187 176.161 26.027C174.751 26.877 173.931 27.2369 172.651 27.9569C171.361 28.6669 170.681 29.0369 169.731 29.6069C168.781 30.1669 168.411 30.357 167.901 30.777C167.391 31.197 167.261 31.447 167.191 31.717C167.121 31.977 167.461 32.0669 167.561 32.1069C167.661 32.1469 167.681 31.9469 167.671 31.9269C167.671 31.9069 167.381 32.0269 167.551 32.0169C167.721 31.9969 167.931 32.0569 168.521 31.8569C169.101 31.6569 169.481 31.4669 170.471 31.0069C171.461 30.5469 172.151 30.1969 173.481 29.5369C174.811 28.8769 175.651 28.5269 177.131 27.6969C178.611 26.8669 179.491 26.3269 180.871 25.3769C182.241 24.4169 182.981 23.9269 184.011 22.9169C185.041 21.8969 185.521 21.3269 186.031 20.2869C186.541 19.2369 186.611 18.6369 186.561 17.6969C186.511 16.7569 186.291 16.3269 185.761 15.5869C185.241 14.8469 184.811 14.517 183.921 13.997C183.041 13.477 182.501 13.2869 181.351 12.9869C180.211 12.6769 179.501 12.5769 178.211 12.4769C176.921 12.3669 176.221 12.4069 174.901 12.4569C173.591 12.5069 172.911 12.5269 171.631 12.7069C170.361 12.8869 169.641 12.9869 168.511 13.3469C167.391 13.7069 166.831 13.9969 166.021 14.4869C165.221 14.9769 164.891 15.317 164.481 15.807C164.071 16.297 163.971 16.617 163.961 16.937C163.961 17.257 164.171 17.4069 164.461 17.4169Z" fill="#F2F2F2" stroke="#F2F2F2"/>
<path d="M190.676 27.6561C190.417 27.7506 190.37 27.9115 189.998 28.348C189.625 28.7846 189.331 29.1198 188.804 29.8491C188.286 30.5783 187.956 31.1341 187.391 32.0041C186.816 32.8743 186.464 33.3405 185.949 34.1996C185.444 35.0585 185.113 35.5444 184.855 36.279C184.598 37.0136 184.514 37.3451 184.653 37.8828C184.803 38.4202 185.018 38.7166 185.573 38.9769C186.117 39.2374 186.538 39.2801 187.396 39.1751C188.265 39.0699 188.761 38.8612 189.884 38.4616C191.007 38.0619 191.653 37.8006 193.013 37.1868C194.372 36.573 195.165 36.1491 196.672 35.3926C198.179 34.6262 199.051 34.191 200.547 33.3747C202.043 32.5585 202.865 32.1041 204.142 31.3017C205.428 30.4891 206.07 30.0478 206.947 29.3224C207.835 28.5868 208.199 28.2504 208.538 27.6344C208.888 27.0282 208.892 26.708 208.674 26.2718C208.457 25.8255 208.132 25.5712 207.43 25.4434C206.737 25.3055 206.187 25.315 205.192 25.5925C204.187 25.87 203.572 26.2008 202.443 26.8206C201.314 27.4404 200.641 27.8822 199.545 28.7015C198.46 29.5206 197.838 30.0015 196.983 30.8965C196.139 31.7814 195.717 32.2788 195.293 33.1564C194.858 34.0241 194.726 34.4965 194.829 35.2448C194.922 36.0033 195.159 36.3992 195.778 36.9285C196.408 37.4576 196.882 37.6893 197.956 37.9006C199.04 38.1217 199.76 38.1292 201.178 38.0144C202.587 37.9098 203.464 37.7445 205.037 37.357C206.611 36.9594 207.485 36.6241 209.035 36.047C210.585 35.4698 211.379 35.0859 212.798 34.4711C214.217 33.8462 214.962 33.5132 216.132 32.9626C217.303 32.4221 217.909 32.1615 218.641 31.7387C219.364 31.316 219.59 31.072 219.766 30.8689C219.943 30.6558 219.802 30.6182 219.523 30.7031C219.245 30.788 218.898 30.9441 218.374 31.3033C217.85 31.6625 217.385 31.9406 216.905 32.5091C216.424 33.0776 216.143 33.5625 215.963 34.1458C215.783 34.729 215.78 35.0991 215.995 35.4354C216.222 35.7815 216.463 35.8773 217.053 35.877C217.653 35.8665 218.021 35.7401 218.975 35.4034C219.93 35.0767 220.544 34.7459 221.825 34.2335C223.106 33.711 224.01 33.3452 225.381 32.8212C226.742 32.2974 227.559 32.0831 228.661 31.6138C229.773 31.1543 230.498 30.8616 230.912 30.5143C231.326 30.1771 231.273 29.988 230.741 29.8972C230.21 29.8165 229.451 29.9197 228.244 30.0908C227.037 30.2719 226.169 30.3871 224.716 30.7925C223.253 31.1981 222.269 31.5553 220.948 32.0985C219.627 32.6516 218.984 33.0129 218.112 33.5282C217.231 34.0336 216.936 34.2888 216.582 34.6451C216.228 35.0113 216.201 35.2018 216.344 35.3293C216.486 35.4468 216.796 35.4614 217.282 35.2429C217.779 35.0242 218.254 34.7659 218.785 34.2366C219.316 33.7072 219.628 33.2317 219.936 32.5862C220.235 31.9409 220.337 31.499 220.289 31.0098C220.24 30.5306 220.127 30.3025 219.684 30.1702C219.232 30.0481 218.913 30.1237 218.067 30.3685C217.221 30.6133 216.636 30.8935 215.435 31.3846C214.243 31.8755 213.499 32.2385 212.099 32.813C210.689 33.3977 209.905 33.7614 208.394 34.2879C206.893 34.8042 206.058 35.0788 204.573 35.4147C203.089 35.7607 202.261 35.8552 200.983 35.9975C199.705 36.1498 199.076 36.1608 198.185 36.1364C197.284 36.1121 196.953 36.0578 196.5 35.8557C196.056 35.6634 195.924 35.5457 195.938 35.1654C195.951 34.7751 196.096 34.5226 196.556 33.9344C197.016 33.3363 197.409 32.9194 198.236 32.2048C199.064 31.4903 199.666 31.0397 200.714 30.3413C201.762 29.6429 202.446 29.261 203.476 28.6929C204.506 28.1248 205.072 27.8849 205.876 27.5108C206.679 27.1367 207.047 27.0203 207.504 26.8323C207.951 26.6445 208.109 26.5517 208.15 26.571C208.19 26.5803 208.13 26.6213 207.696 26.919C207.271 27.2064 206.905 27.4628 206.015 28.0385C205.115 28.6143 204.492 29.0452 203.225 29.7774C201.947 30.5098 201.145 30.9339 199.658 31.7C198.171 32.476 197.288 32.9015 195.791 33.6278C194.303 34.3538 193.52 34.7676 192.19 35.3509C190.87 35.934 190.214 36.1355 189.161 36.5439C188.118 36.9622 187.641 37.1505 186.966 37.4224C186.29 37.6942 186.083 37.8278 185.794 37.9129C185.515 37.9878 185.476 37.9985 185.562 37.8169C185.649 37.6354 185.847 37.5219 186.238 37.015C186.64 36.5079 186.982 36.0419 187.558 35.2817C188.145 34.5213 188.548 34.0742 189.163 33.2134C189.778 32.3525 190.199 31.8251 190.644 30.9772C191.089 30.1393 191.26 29.6262 191.389 29.0039C191.518 28.3715 191.424 28.1131 191.289 27.8454C191.144 27.5679 190.934 27.5516 190.676 27.6561Z" fill="#F2F2F2" stroke="#F2F2F2"/>
</svg>
