<svg width="248" height="50" viewBox="0 0 248 50" fill="none" xmlns="http://www.w3.org/2000/svg">
<path d="M13.2223 7.06084C12.866 7.30997 12.6603 7.62572 12.5155 8.36151C12.3706 9.0944 12.5386 9.54051 12.4981 10.7369C12.4604 11.9333 12.5126 12.7154 12.3156 14.3463C12.1186 15.9772 11.968 16.9245 11.5161 18.8885C11.0671 20.8525 10.7252 21.9359 10.0619 24.1694C9.39851 26.4028 8.98716 27.7064 8.19633 30.0557C7.4084 32.4021 6.93333 33.6999 6.11063 35.9014C5.29084 38.103 4.83314 39.2154 4.09156 41.0635C3.34998 42.9088 2.98788 43.7894 2.40562 45.1277C1.82047 46.469 1.33091 46.9585 1.16579 47.7609C1.00068 48.5605 1.21504 48.937 1.57714 49.1311C1.93924 49.3223 2.50991 49.389 2.98209 48.7227C3.45426 48.0564 3.43399 47.3032 3.94383 45.7998C4.45366 44.2964 4.76073 43.2332 5.52838 41.2026C6.29603 39.1719 6.7769 37.9842 7.78499 35.6465C8.79307 33.3088 9.38982 31.9705 10.5717 29.514C11.7507 27.0546 12.4199 25.751 13.6916 23.3525C14.9604 20.9568 15.6382 19.7373 16.9186 17.5241C18.1961 15.3109 18.845 14.1725 20.0848 12.2896C21.3217 10.4066 21.9562 9.54051 23.1091 8.10949C24.2649 6.67846 24.824 6.07014 25.8552 5.13447C26.8865 4.19591 27.3877 3.85119 28.2712 3.42536C29.1547 2.99663 29.5516 2.99084 30.27 2.99953C30.9913 3.00822 31.2781 3.13857 31.869 3.46301C32.46 3.78745 32.7178 4.00761 33.2247 4.61594C33.7288 5.22717 34.059 5.62113 34.395 6.51045C34.7311 7.39688 34.8991 7.90961 34.902 9.05385C34.9078 10.1981 34.8585 10.8499 34.4182 12.2287C33.9779 13.6076 33.61 14.439 32.7004 15.9482C31.7908 17.4575 31.1796 18.2802 29.8702 19.7807C28.5609 21.2813 27.7034 22.0721 26.1536 23.4452C24.6038 24.8212 23.6913 25.5019 22.1155 26.6519C20.5396 27.802 19.6735 28.3639 18.2772 29.1953C16.8809 30.0238 16.1625 30.3019 15.1342 30.8031C14.1058 31.3042 13.6452 31.4317 13.1354 31.704C12.6284 31.9792 12.7038 31.9878 12.5937 32.1732C12.4836 32.3586 12.3967 32.4455 12.5879 32.6367C12.7791 32.825 12.8863 33.1871 13.5467 33.1234C14.2101 33.0568 14.8039 32.8714 15.8931 32.3094C16.9794 31.7474 17.6023 31.2521 18.9869 30.3106C20.3716 29.3691 21.2348 28.8014 22.8194 27.5992C24.4068 26.3999 25.3251 25.7105 26.9155 24.3055C28.5058 22.9035 29.3894 22.1126 30.774 20.5831C32.1558 19.0536 32.8163 18.228 33.8359 16.6608C34.8556 15.0908 35.2959 14.2449 35.8695 12.7386C36.4402 11.2293 36.5995 10.4964 36.698 9.12047C36.7994 7.74449 36.7125 7.04347 36.3649 5.85867C36.0172 4.67678 35.6696 4.07423 34.9628 3.1994C34.256 2.32456 33.7954 1.91612 32.8365 1.4816C31.8777 1.04997 31.2375 0.93121 30.1657 1.0355C29.0968 1.13688 28.5348 1.36572 27.4862 1.99723C26.4404 2.62583 25.9827 3.09802 24.9312 4.18432C23.8825 5.27352 23.3698 5.91661 22.24 7.43453C21.1074 8.94956 20.4933 9.83888 19.2766 11.7711C18.06 13.7003 17.4227 14.8503 16.1539 17.0867C14.8851 19.323 14.2101 20.5455 12.9326 22.9527C11.6551 25.36 10.9831 26.6664 9.7693 29.1229C8.55554 31.5794 7.95011 32.9177 6.86381 35.2323C5.7775 37.5497 5.24449 38.72 4.3349 40.7043C3.4282 42.6886 2.98209 43.7112 2.31872 45.1538C1.65825 46.5993 1.14262 47.1265 1.02095 47.9261C0.899287 48.7256 1.33091 49.0529 1.71039 49.1514C2.08697 49.247 2.5128 49.1166 2.90967 48.4098C3.30942 47.703 3.25439 47.0078 3.6976 45.6144C4.14081 44.2239 4.45366 43.3288 5.12282 41.4546C5.79488 39.5804 6.24679 38.4622 7.0492 36.2461C7.85161 34.0301 8.32959 32.7265 9.1349 30.3743C9.94021 28.0192 10.3602 26.7186 11.0758 24.4822C11.7942 22.2459 12.1621 21.1712 12.7211 19.1985C13.2802 17.2257 13.5091 16.2669 13.877 14.6157C14.2478 12.9616 14.3665 12.1621 14.5664 10.9397C14.7634 9.71721 14.9198 9.2711 14.8677 8.50635C14.8155 7.74449 14.6388 7.41136 14.3086 7.12167C13.9813 6.83199 13.5815 6.81462 13.2223 7.06084Z" fill="#F2F2F2" stroke="#F2F2F2"/>
<path d="M49.2982 9.71731C48.9245 9.79842 48.7131 9.9114 48.3568 10.485C48.0005 11.0556 48.0265 11.4351 47.5167 12.5765C47.0068 13.7207 46.6534 14.5057 45.8076 16.1975C44.9617 17.8892 44.4432 18.9668 43.2873 21.0351C42.1286 23.1063 41.3668 24.3346 40.0198 26.5449C38.6727 28.7522 37.8501 29.9776 36.5465 32.0777C35.2429 34.1779 34.5593 35.3106 33.5048 37.0458C32.4504 38.7809 31.8218 39.5428 31.2714 40.7508C30.721 41.9587 30.5327 42.4454 30.7558 43.0856C30.9817 43.7258 31.5553 44.0937 32.3954 43.9575C33.2354 43.8214 33.7598 43.271 34.9561 42.4077C36.1554 41.5416 36.8796 40.7826 38.3831 39.6384C39.8894 38.4913 40.8367 37.7671 42.4733 36.6808C44.1129 35.5945 45.0979 34.9717 46.5752 34.204C48.0555 33.4363 48.8637 33.164 49.8689 32.8454C50.8712 32.5268 51.2275 32.5702 51.5925 32.6136C51.9604 32.6542 51.83 32.66 51.7055 33.0569C51.5809 33.4537 51.3289 33.7984 50.9697 34.5922C50.6105 35.3859 50.3614 36.0203 49.9094 37.0226C49.4575 38.0278 49.052 38.6158 48.7073 39.6065C48.3626 40.5972 48.1076 41.1389 48.1858 41.9761C48.2612 42.8133 48.5103 43.2884 49.0983 43.7895C49.6835 44.2907 50.2165 44.5659 51.1232 44.4848C52.027 44.4036 52.5021 43.9865 53.6203 43.3811C54.7384 42.7756 55.3612 42.3093 56.7111 41.4547C58.0611 40.5972 58.8895 40.0555 60.3669 39.1054C61.8443 38.1552 62.6901 37.5585 64.1009 36.7039C65.5087 35.8465 66.2909 35.4004 67.4177 34.821C68.5446 34.2417 69.1761 34.1374 69.7352 33.8042C70.2972 33.4711 70.2943 33.1872 70.216 33.1582C70.1407 33.1293 69.741 33.2249 69.3499 33.6536C68.9617 34.0823 68.6981 34.5111 68.2665 35.3077C67.8349 36.1043 67.606 36.6952 67.1918 37.6309C66.7804 38.5666 66.3285 39.088 66.1982 39.986C66.0649 40.8869 66.1808 41.4373 66.5342 42.1239C66.8847 42.8104 67.2294 43.1406 67.9565 43.4245C68.6865 43.7055 69.1616 43.8011 70.1726 43.5346C71.1836 43.2652 71.7571 42.8162 73.0173 42.0833C74.2774 41.3504 74.9523 40.9072 76.4731 39.8672C77.994 38.8302 78.8688 38.2363 80.6243 36.8893C82.3768 35.5394 83.3501 34.7341 85.2447 33.1264C87.1392 31.5216 88.1733 30.5772 90.0939 28.8536C92.0116 27.13 93.0313 26.2262 94.8389 24.5084C96.6465 22.7906 97.5706 21.8781 99.129 20.2617C100.688 18.6482 101.464 17.8226 102.625 16.4379C103.787 15.0503 104.271 14.4623 104.94 13.3354C105.606 12.2086 105.939 11.6929 105.963 10.8007C105.989 9.90851 105.696 9.33494 105.059 8.87435C104.424 8.41665 103.816 8.21098 102.785 8.50356C101.754 8.79324 101.203 9.2799 99.8996 10.3285C98.5989 11.3801 97.8574 12.1188 96.2728 13.7584C94.6853 15.3979 93.712 16.4321 91.9739 18.5323C90.2388 20.6296 89.2278 21.9071 87.5853 24.2506C85.9428 26.5912 85.0535 27.9614 83.7586 30.2441C82.4608 32.5239 81.8148 33.6768 81.1051 35.6495C80.3925 37.6251 80.1405 38.5782 80.2013 40.1135C80.2622 41.6488 80.5171 42.3991 81.4122 43.3231C82.3073 44.2501 83.1039 44.5224 84.6769 44.7397C86.247 44.954 87.2637 44.7889 89.2712 44.4065C91.2787 44.0213 92.4345 43.6476 94.7143 42.822C96.997 41.9964 98.4454 41.2722 100.679 40.2815C102.912 39.2908 104.152 38.6796 105.881 37.8656C107.614 37.0516 108.726 36.7184 109.332 36.2086C109.937 35.6987 109.688 35.1715 108.909 35.3164C108.132 35.4583 107.179 36.1304 105.447 36.927C103.712 37.7236 102.466 38.3261 100.247 39.2966C98.0254 40.2699 96.5856 41.0028 94.3464 41.782C92.1072 42.5584 90.9514 42.8654 89.0511 43.187C87.1536 43.5085 86.189 43.5462 84.8536 43.384C83.5153 43.2217 83.0547 43.0392 82.3623 42.3759C81.67 41.7096 81.4498 41.3417 81.389 40.0613C81.3282 38.7838 81.4325 37.8598 82.064 35.9855C82.6926 34.1084 83.2951 32.9294 84.5465 30.6844C85.795 28.4394 86.6757 27.0663 88.3124 24.7604C89.9462 22.4546 90.9572 21.1887 92.7184 19.1609C94.4797 17.1331 95.4878 16.125 97.1158 14.6187C98.7409 13.1153 99.578 12.4606 100.853 11.6321C102.127 10.8007 102.782 10.7978 103.489 10.4676C104.193 10.1403 104.227 9.95775 104.378 9.98382C104.532 10.007 104.398 10.062 104.248 10.5893C104.097 11.1165 104.135 11.5944 103.628 12.6199C103.121 13.6425 102.753 14.3145 101.707 15.705C100.661 17.0955 99.9025 17.9471 98.399 19.5722C96.8956 21.2002 95.9802 22.1185 94.1929 23.8363C92.4084 25.5512 91.3888 26.4521 89.4711 28.1584C87.5534 29.8617 86.5077 30.7974 84.6016 32.3587C82.6984 33.9201 81.7221 34.708 79.9464 35.971C78.1678 37.2312 77.2756 37.7844 75.7229 38.668C74.1702 39.5515 73.4344 39.8933 72.1888 40.3916C70.9402 40.8869 70.2682 40.9014 69.486 41.1476C68.7039 41.3968 68.5504 41.5271 68.2781 41.6314C68.0058 41.7357 68.0145 41.8284 68.1245 41.6691C68.2317 41.5068 68.4895 41.3852 68.8227 40.8232C69.1558 40.2583 69.3586 39.7079 69.7873 38.8534C70.2189 37.9988 70.6187 37.4571 70.9692 36.5533C71.3226 35.6466 71.5602 35.1339 71.5486 34.3257C71.537 33.5175 71.4037 32.9815 70.9113 32.5094C70.4188 32.0372 69.9553 31.7968 69.0921 31.9619C68.2288 32.1299 67.7451 32.6426 66.5892 33.3407C65.4363 34.0389 64.7208 34.5487 63.3159 35.4496C61.9138 36.3476 61.0708 36.9328 59.5761 37.8337C58.0813 38.7346 57.2268 39.2386 55.8479 39.957C54.4661 40.6726 53.7303 40.9883 52.6788 41.4257C51.6273 41.8631 51.1348 41.8921 50.5873 42.1412C50.0398 42.3904 49.9935 42.6569 49.9384 42.6743C49.8834 42.6916 50.0862 42.6569 50.315 42.231C50.541 41.8052 50.7003 41.3823 51.0798 40.5451C51.4592 39.7079 51.7547 39.0764 52.2066 38.0452C52.6585 37.0139 53.0872 36.4229 53.3422 35.3859C53.5942 34.3488 53.7332 33.7028 53.4696 32.8599C53.206 32.0169 52.8439 31.4868 52.027 31.1739C51.2101 30.8611 50.6134 30.9277 49.3909 31.2898C48.1714 31.6548 47.453 32.1357 45.9234 32.9902C44.3939 33.8448 43.4351 34.4821 41.7462 35.5597C40.0574 36.6373 39.0493 37.3094 37.4793 38.3812C35.9092 39.453 35.0431 40.1077 33.8959 40.9188C32.7459 41.7299 32.1781 42.0109 31.7349 42.4309C31.2917 42.851 31.5176 43.2304 31.6828 43.019C31.845 42.8075 31.9956 42.4541 32.5547 41.3707C33.1109 40.2873 33.4991 39.3574 34.4666 37.6019C35.4312 35.8436 36.1033 34.6965 37.3808 32.5905C38.6612 30.4816 39.4838 29.2591 40.8598 27.0634C42.2358 24.8647 43.0179 23.6365 44.2578 21.6058C45.5005 19.5722 46.0625 18.5236 47.0677 16.9014C48.0729 15.2792 48.6204 14.6042 49.2808 13.4947C49.9442 12.3882 50.1846 12.0463 50.3758 11.3627C50.567 10.682 50.4483 10.4125 50.2339 10.0823C50.0195 9.75208 49.6748 9.6362 49.2982 9.71731Z" fill="#F2F2F2" stroke="#F2F2F2"/>
<path d="M148.47 7.33059C148.29 7.31059 148.29 7.22059 147.98 7.42059C147.68 7.61059 147.43 7.73058 146.95 8.32058C146.47 8.92058 146.25 9.3506 145.58 10.4006C144.9 11.4406 144.53 12.1106 143.57 13.5406C142.62 14.9606 142.03 15.8106 140.79 17.5206C139.56 19.2306 138.81 20.2206 137.39 22.0906C135.98 23.9606 135.16 24.9806 133.7 26.8606C132.24 28.7406 131.46 29.7806 130.1 31.5006C128.74 33.2306 127.99 34.0306 126.91 35.4806C125.82 36.9206 125.3 37.5906 124.66 38.7206C124.01 39.8606 123.77 40.3806 123.69 41.1506C123.61 41.9106 123.76 42.1706 124.26 42.5406C124.75 42.9006 125.15 43.0006 126.18 42.9606C127.22 42.9206 127.93 42.7906 129.43 42.3406C130.93 41.8906 131.84 41.4206 133.68 40.7106C135.52 40.0006 136.63 39.5406 138.65 38.7906C140.67 38.0506 141.84 37.6506 143.79 36.9606C145.75 36.2806 146.74 35.9406 148.43 35.3906C150.12 34.8406 150.94 34.6306 152.22 34.2006C153.51 33.7706 154.06 33.5806 154.85 33.2506C155.64 32.9206 155.94 32.7806 156.18 32.5506C156.42 32.3206 156.39 32.1806 156.06 32.1106C155.74 32.0406 155.41 32.0606 154.56 32.1806C153.71 32.3006 153.12 32.3806 151.79 32.7006C150.47 33.0206 149.64 33.2706 147.93 33.7706C146.21 34.2806 145.2 34.5906 143.21 35.2206C141.23 35.8506 140.04 36.2206 137.98 36.9306C135.93 37.6306 134.78 38.0606 132.94 38.7506C131.09 39.4306 130.17 39.8106 128.76 40.3406C127.35 40.8706 126.73 41.0806 125.89 41.3806C125.05 41.6906 124.82 41.8606 124.57 41.8706C124.32 41.8806 124.37 41.8806 124.64 41.4106C124.9 40.9406 125.19 40.5106 125.9 39.5206C126.62 38.5406 127.09 37.8706 128.2 36.4906C129.32 35.1106 130.09 34.3106 131.48 32.6106C132.87 30.9106 133.67 29.8806 135.15 28.0106C136.64 26.1406 137.47 25.1206 138.92 23.2606C140.36 21.4006 141.13 20.4106 142.4 18.6906C143.67 16.9806 144.27 16.1206 145.26 14.6806C146.25 13.2506 146.66 12.5806 147.33 11.5206C148 10.4606 148.26 10.0806 148.61 9.39059C148.95 8.71059 149.01 8.4706 149.06 8.0906C149.12 7.7206 149 7.6806 148.88 7.5206C148.77 7.3706 148.65 7.35059 148.47 7.33059Z" fill="#F2F2F2" stroke="#F2F2F2"/>
<path d="M162.369 30.2904C162.719 30.2804 163.199 30.1404 163.489 29.7304C163.769 29.3304 163.939 28.7804 163.789 28.2504C163.649 27.7204 163.389 27.2904 162.779 27.0904C162.179 26.9004 161.729 27.0104 160.779 27.3004C159.829 27.5904 159.189 27.8704 158.039 28.5304C156.879 29.1904 156.189 29.6804 155.009 30.5804C153.819 31.4904 153.129 32.1004 152.119 33.0404C151.109 33.9904 150.589 34.5104 149.959 35.3304C149.329 36.1504 149.079 36.5604 148.969 37.1404C148.869 37.7204 148.999 38.0304 149.439 38.2404C149.879 38.4604 150.339 38.4804 151.179 38.2304C152.009 37.9704 152.549 37.6604 153.629 36.9904C154.709 36.3204 155.349 35.7804 156.579 34.8804C157.809 33.9704 158.609 33.3704 159.759 32.4504C160.909 31.5404 161.569 30.9904 162.339 30.2904C163.109 29.6004 163.379 29.2404 163.599 28.9604C163.819 28.6904 163.739 28.6604 163.449 28.9004C163.169 29.1404 162.699 29.4404 162.169 30.1504C161.649 30.8604 161.199 31.4804 160.819 32.4404C160.449 33.4004 160.339 34.0604 160.309 34.9504C160.279 35.8404 160.339 36.2904 160.659 36.8904C160.989 37.4904 161.259 37.7504 161.929 37.9404C162.599 38.1404 163.059 38.1204 164.019 37.8704C164.989 37.6204 165.589 37.3804 166.749 36.7004C167.909 36.0204 168.529 35.4704 169.839 34.4704C171.149 33.4604 171.909 32.8504 173.319 31.6804C174.719 30.5204 175.519 29.8704 176.869 28.6504C178.209 27.4304 178.879 26.7304 180.039 25.5804C181.199 24.4304 181.779 23.8204 182.689 22.8904C183.599 21.9604 183.999 21.5504 184.599 20.9204C185.199 20.2904 185.459 20.0004 185.699 19.7304C185.939 19.4604 185.919 19.3704 185.799 19.5504C185.669 19.7404 185.439 19.9504 185.089 20.6504C184.739 21.3504 184.549 21.9304 184.049 23.0504C183.549 24.1804 183.249 24.8904 182.569 26.2704C181.889 27.6504 181.439 28.5004 180.669 29.9604C179.899 31.4204 179.489 32.2104 178.719 33.5804C177.939 34.9504 177.469 35.6304 176.809 36.8204C176.149 38.0204 175.829 38.6704 175.399 39.5404C174.969 40.4104 174.859 40.7304 174.669 41.1604C174.489 41.5904 174.459 41.6004 174.479 41.6904C174.509 41.7704 174.739 41.7104 174.799 41.5704C174.859 41.4404 174.969 41.0904 174.769 41.0204C174.569 40.9404 173.949 41.0304 173.789 41.1904C173.639 41.3604 173.819 41.6504 173.979 41.8404C174.149 42.0304 174.299 42.1604 174.619 42.1604C174.929 42.1604 175.129 42.2104 175.559 41.8404C175.989 41.4704 176.199 41.1504 176.749 40.3204C177.299 39.4804 177.589 38.8504 178.299 37.6904C179.009 36.5204 179.459 35.8504 180.279 34.4904C181.089 33.1304 181.539 32.3504 182.369 30.8904C183.199 29.4304 183.689 28.6104 184.419 27.2104C185.159 25.8004 185.569 25.1004 186.039 23.8804C186.509 22.6604 186.669 22.0204 186.769 21.1204C186.869 20.2204 186.809 19.8104 186.519 19.3604C186.229 18.9104 185.889 18.8004 185.319 18.8904C184.739 18.9804 184.389 19.2604 183.639 19.8304C182.879 20.4004 182.519 20.8304 181.559 21.7304C180.589 22.6304 180.009 23.2104 178.829 24.3204C177.649 25.4304 176.989 26.1004 175.639 27.2704C174.289 28.4404 173.489 29.0504 172.089 30.1704C170.679 31.2904 169.899 31.9004 168.619 32.8604C167.339 33.8204 166.729 34.3004 165.689 34.9704C164.649 35.6504 164.139 35.8504 163.419 36.2104C162.699 36.5804 162.429 36.7404 162.089 36.8004C161.739 36.8604 161.709 36.8104 161.699 36.5104C161.699 36.2004 161.789 35.9104 162.049 35.2804C162.309 34.6604 162.619 34.2104 163.009 33.3704C163.399 32.5204 163.749 31.9304 163.999 31.0704C164.259 30.2104 164.419 29.6404 164.299 29.0704C164.169 28.5004 163.959 28.2504 163.369 28.2204C162.789 28.1904 162.329 28.3904 161.359 28.9104C160.399 29.4304 159.749 29.9804 158.539 30.8204C157.329 31.6604 156.539 32.2504 155.309 33.1204C154.079 33.9904 153.389 34.4504 152.399 35.1704C151.419 35.8804 150.969 36.2204 150.389 36.7104C149.799 37.2004 149.609 37.4404 149.489 37.6204C149.369 37.7904 149.459 37.8104 149.799 37.5804C150.129 37.3504 150.449 37.0804 151.169 36.4604C151.889 35.8404 152.379 35.3204 153.389 34.4904C154.409 33.6504 155.089 33.0804 156.239 32.2704C157.389 31.4504 158.079 31.0604 159.139 30.4304C160.199 29.8004 160.829 29.5404 161.559 29.1104C162.279 28.6804 162.569 28.4604 162.779 28.2704C162.989 28.0804 162.789 28.0904 162.609 28.1804C162.429 28.2604 162.059 28.3904 161.879 28.7104C161.699 29.0304 161.619 29.4604 161.719 29.7804C161.819 30.0904 162.019 30.3004 162.369 30.2904Z" fill="#F2F2F2" stroke="#F2F2F2"/>
<path d="M180.141 17.8204C180.441 17.8304 180.621 17.6404 181.111 17.4004C181.611 17.1604 181.891 16.9604 182.631 16.6204C183.371 16.2804 183.821 16.0104 184.821 15.6904C185.811 15.3704 186.441 15.2104 187.611 15.0104C188.781 14.8104 189.441 14.7504 190.671 14.6804C191.901 14.6104 192.571 14.5804 193.761 14.6504C194.951 14.7204 195.611 14.8104 196.631 15.0304C197.661 15.2604 198.121 15.4004 198.861 15.7604C199.611 16.1204 199.941 16.3504 200.341 16.8304C200.731 17.3004 200.851 17.5304 200.831 18.1304C200.811 18.7404 200.721 19.1104 200.231 19.8704C199.741 20.6204 199.341 21.0604 198.381 21.9104C197.411 22.7704 196.711 23.2304 195.411 24.1304C194.101 25.0404 193.261 25.5904 191.841 26.4304C190.431 27.2804 189.611 27.6404 188.331 28.3604C187.041 29.0704 186.361 29.4404 185.411 30.0104C184.461 30.5704 184.091 30.7604 183.581 31.1804C183.071 31.6004 182.941 31.8504 182.871 32.1204C182.801 32.3804 183.141 32.4704 183.241 32.5104C183.341 32.5504 183.361 32.3504 183.351 32.3304C183.351 32.3104 183.061 32.4304 183.231 32.4204C183.401 32.4004 183.611 32.4604 184.201 32.2604C184.781 32.0604 185.161 31.8704 186.151 31.4104C187.141 30.9504 187.831 30.6004 189.161 29.9404C190.491 29.2804 191.331 28.9304 192.811 28.1004C194.291 27.2704 195.171 26.7304 196.551 25.7804C197.921 24.8204 198.661 24.3304 199.691 23.3204C200.721 22.3004 201.201 21.7304 201.711 20.6904C202.221 19.6404 202.291 19.0404 202.241 18.1004C202.191 17.1604 201.971 16.7304 201.441 15.9904C200.921 15.2504 200.491 14.9204 199.601 14.4004C198.721 13.8804 198.181 13.6904 197.031 13.3904C195.891 13.0804 195.181 12.9804 193.891 12.8804C192.601 12.7704 191.901 12.8104 190.581 12.8604C189.271 12.9104 188.591 12.9304 187.311 13.1104C186.041 13.2904 185.321 13.3904 184.191 13.7504C183.071 14.1104 182.511 14.4004 181.701 14.8904C180.901 15.3804 180.571 15.7204 180.161 16.2104C179.751 16.7004 179.651 17.0204 179.641 17.3404C179.641 17.6604 179.851 17.8104 180.141 17.8204Z" fill="#F2F2F2" stroke="#F2F2F2"/>
<path d="M206.359 28.0596C206.101 28.1541 206.054 28.315 205.681 28.7515C205.309 29.1881 205.015 29.5233 204.487 30.2526C203.97 30.9817 203.64 31.5376 203.075 32.4076C202.5 33.2777 202.148 33.7439 201.633 34.6031C201.128 35.462 200.796 35.9479 200.539 36.6825C200.282 37.4171 200.198 37.7486 200.337 38.2862C200.486 38.8237 200.702 39.12 201.256 39.3804C201.801 39.6409 202.222 39.6836 203.08 39.5786C203.948 39.4734 204.445 39.2647 205.568 38.8651C206.691 38.4654 207.337 38.2041 208.696 37.5903C210.056 36.9764 210.848 36.5525 212.355 35.7961C213.862 35.0297 214.735 34.5944 216.231 33.7782C217.727 32.962 218.549 32.5075 219.825 31.7051C221.111 30.8926 221.754 30.4513 222.631 29.7259C223.518 28.9903 223.882 28.6539 224.222 28.0379C224.571 27.4317 224.576 27.1115 224.358 26.6752C224.14 26.229 223.816 25.9746 223.113 25.8469C222.421 25.7089 221.871 25.7185 220.876 25.9959C219.87 26.2735 219.256 26.6043 218.127 27.2241C216.997 27.8439 216.325 28.2857 215.229 29.105C214.143 29.924 213.521 30.405 212.667 31.3C211.822 32.1849 211.401 32.6823 210.976 33.5599C210.541 34.4276 210.409 34.8999 210.512 35.6483C210.606 36.4068 210.843 36.8027 211.462 37.332C212.091 37.8611 212.565 38.0928 213.639 38.3041C214.723 38.5252 215.444 38.5326 216.862 38.4179C218.27 38.3133 219.147 38.148 220.721 37.7604C222.294 37.3629 223.168 37.0276 224.719 36.4504C226.269 35.8733 227.062 35.4894 228.482 34.8745C229.901 34.2497 230.645 33.9166 231.816 33.3661C232.987 32.8256 233.592 32.565 234.325 32.1421C235.048 31.7195 235.273 31.4755 235.45 31.2724C235.626 31.0593 235.486 31.0217 235.207 31.1066C234.928 31.1915 234.581 31.3476 234.057 31.7068C233.533 32.0659 233.068 32.3441 232.588 32.9126C232.108 33.481 231.826 33.966 231.647 34.5492C231.467 35.1325 231.463 35.5026 231.679 35.8389C231.905 36.185 232.147 36.2808 232.737 36.2805C233.337 36.27 233.705 36.1436 234.659 35.8069C235.613 35.4802 236.228 35.1494 237.509 34.6369C238.79 34.1145 239.694 33.7487 241.065 33.2247C242.426 32.7008 243.242 32.4866 244.344 32.0173C245.456 31.5578 246.181 31.2651 246.595 30.9178C247.01 30.5805 246.956 30.3914 246.425 30.3007C245.893 30.22 245.135 30.3232 243.928 30.4943C242.721 30.6754 241.852 30.7906 240.399 31.196C238.936 31.6016 237.952 31.9588 236.632 32.5019C235.311 33.0551 234.667 33.4164 233.796 33.9317C232.915 34.4371 232.619 34.6923 232.265 35.0485C231.912 35.4148 231.885 35.6052 232.027 35.7328C232.169 35.8503 232.48 35.8649 232.966 35.6464C233.462 35.4277 233.938 35.1694 234.469 34.64C234.999 34.1107 235.311 33.6352 235.62 32.9897C235.919 32.3444 236.021 31.9025 235.972 31.4133C235.924 30.934 235.81 30.706 235.368 30.5737C234.916 30.4516 234.597 30.5272 233.751 30.772C232.905 31.0168 232.32 31.297 231.118 31.7881C229.927 32.2789 229.183 32.642 227.783 33.2165C226.373 33.8012 225.589 34.1649 224.078 34.6914C222.577 35.2076 221.741 35.4823 220.257 35.8182C218.773 36.1642 217.944 36.2586 216.667 36.401C215.389 36.5533 214.759 36.5643 213.869 36.5398C212.968 36.5156 212.637 36.4613 212.183 36.2592C211.74 36.0669 211.608 35.9492 211.621 35.5689C211.634 35.1786 211.78 34.926 212.24 34.3379C212.7 33.7398 213.092 33.3229 213.92 32.6083C214.748 31.8938 215.35 31.4432 216.398 30.7448C217.446 30.0464 218.129 29.6644 219.159 29.0964C220.19 28.5283 220.756 28.2884 221.559 27.9143C222.363 27.5402 222.731 27.4238 223.188 27.2358C223.634 27.0479 223.793 26.9552 223.833 26.9745C223.873 26.9838 223.814 27.0248 223.379 27.3224C222.954 27.6099 222.589 27.8663 221.698 28.4419C220.798 29.0177 220.176 29.4487 218.908 30.1809C217.631 30.9133 216.828 31.3374 215.341 32.1035C213.855 32.8795 212.972 33.305 211.474 34.0312C209.987 34.7573 209.204 35.171 207.874 35.7543C206.554 36.3375 205.897 36.539 204.844 36.9474C203.801 37.3657 203.325 37.554 202.649 37.8258C201.974 38.0977 201.766 38.2313 201.478 38.3164C201.199 38.3912 201.159 38.4019 201.246 38.2204C201.333 38.0388 201.531 37.9254 201.922 37.4185C202.323 36.9114 202.665 36.4453 203.242 35.6852C203.829 34.9248 204.231 34.4777 204.846 33.6168C205.461 32.756 205.882 32.2286 206.327 31.3807C206.773 30.5428 206.944 30.0297 207.073 29.4074C207.202 28.775 207.108 28.5166 206.973 28.2489C206.828 27.9714 206.618 27.9551 206.359 28.0596Z" fill="#F2F2F2" stroke="#F2F2F2"/>
</svg>
