<svg width="256" height="50" viewBox="0 0 256 50" fill="none" xmlns="http://www.w3.org/2000/svg">
<path d="M13.5713 6.03171C13.2062 6.3419 13.064 6.65209 12.9251 7.55035C12.7862 8.45184 12.9994 9.00436 12.8799 10.5262C12.7635 12.0481 12.7215 13.0821 12.3338 15.1565C11.9461 17.2309 11.6294 18.4716 10.9412 20.9014C10.2562 23.3313 9.77797 24.7142 8.8991 27.2991C8.02022 29.884 7.4774 31.3057 6.55006 33.826C5.62595 36.3463 5.09604 37.7389 4.26887 39.9006C3.44492 42.0654 3.03457 43.1446 2.42066 44.6439C1.80674 46.1399 1.4707 46.5761 1.19928 47.3871C0.927864 48.2014 0.986026 48.3855 1.07004 48.7086C1.15405 49.0318 1.28975 49.1352 1.61933 49.0091C1.94891 48.8831 2.27848 48.8444 2.72115 48.0786C3.16705 47.3128 3.29953 46.7312 3.83913 45.1802C4.38196 43.6293 4.67276 42.5145 5.42239 40.3174C6.17524 38.1234 6.68899 36.7373 7.59694 34.2073C8.5049 31.6773 9.05096 30.2556 9.96214 27.6674C10.8733 25.0793 11.3742 23.6996 12.1529 21.2666C12.9348 18.8335 13.3161 17.5927 13.8686 15.5022C14.4211 13.4116 14.5924 12.3712 14.909 10.8106C15.2257 9.24993 15.4809 8.65541 15.4486 7.69576C15.4163 6.73611 15.1255 6.34513 14.7507 6.01232C14.3727 5.67952 13.9365 5.72475 13.5713 6.03171Z" fill="#F2F2F2" stroke="#F2F2F2"/>
<path d="M3.60779 12.326C3.8889 12.5425 3.98906 12.7557 4.56421 12.6459C5.14258 12.5328 5.41723 12.2743 6.48673 11.7702C7.55947 11.2694 8.22832 10.8074 9.91821 10.1288C11.6081 9.45352 12.823 9.00439 14.9426 8.38078C17.0655 7.75717 18.2998 7.40497 20.5196 7.00754C22.7394 6.61011 24.0125 6.44856 26.0416 6.39363C28.074 6.3387 29.1403 6.42271 30.6718 6.72644C32.2034 7.03339 32.8722 7.35651 33.7027 7.91873C34.5331 8.48095 34.6914 8.72005 34.8239 9.5343C34.9563 10.3485 34.9628 10.7654 34.3715 11.99C33.7802 13.2178 33.2729 14.0773 31.8738 15.6605C30.4747 17.247 29.4569 18.1776 27.3825 19.9127C25.3081 21.6479 23.9381 22.6366 21.5019 24.3362C19.0688 26.0357 17.5663 26.9308 15.2141 28.4074C12.8585 29.8808 11.6598 30.6272 9.73727 31.7096C7.81474 32.7921 6.80662 33.2056 5.59817 33.8228C4.38972 34.4432 4.05692 34.5078 3.70149 34.8083C3.3493 35.1088 3.68857 35.2833 3.82428 35.3221C3.95998 35.3608 4.4285 35.1831 4.38003 34.9989C4.33157 34.8148 3.80166 34.3495 3.57548 34.4012C3.35253 34.4561 3.14897 34.9246 3.25236 35.2639C3.35576 35.6032 3.47854 36.0975 4.09892 36.1008C4.7193 36.1008 5.10058 35.936 6.35426 35.2704C7.60795 34.6047 8.48035 33.9553 10.3673 32.763C12.2543 31.5739 13.4402 30.8243 15.7892 29.3154C18.1382 27.8064 19.644 26.9146 22.1158 25.2215C24.5844 23.5251 25.977 22.559 28.1386 20.8433C30.3035 19.1276 31.3827 18.2584 32.9336 16.6396C34.4878 15.0208 35.1664 14.2324 35.9095 12.7461C36.6495 11.2597 36.8821 10.4584 36.643 9.20472C36.4007 7.95103 35.8417 7.2725 34.7011 6.47441C33.5637 5.67631 32.6881 5.50183 30.9465 5.21103C29.2049 4.92023 28.1257 4.92669 25.9932 5.01716C23.8638 5.11086 22.5778 5.28535 20.2869 5.66662C17.9993 6.04466 16.7488 6.39362 14.5549 6.9203C12.361 7.44697 11.1396 7.82179 9.31722 8.29677C7.49485 8.77174 6.61922 8.8396 5.43985 9.28873C4.25725 9.73786 3.86628 10.0868 3.41069 10.5392C2.9551 10.9948 3.12312 11.208 3.16189 11.5635C3.20066 11.9221 3.32668 12.1095 3.60779 12.326Z" fill="#F2F2F2" stroke="#F2F2F2"/>
<path d="M49.0604 4.56477C48.5951 4.64878 48.2817 4.77802 47.6904 5.57288C47.0991 6.36774 46.9149 7.05597 46.1007 8.53583C45.2896 10.0157 44.7565 10.9947 43.6321 12.9754C42.5044 14.9529 41.7677 16.2163 40.472 18.4296C39.1763 20.6397 38.4364 21.916 37.1472 24.0324C35.8579 26.152 35.1277 27.2603 34.0259 29.0213C32.9208 30.779 32.2455 31.5513 31.6316 32.8308C31.0177 34.1136 30.7527 34.6823 30.9563 35.4222C31.1631 36.1589 31.7867 36.5951 32.6559 36.5272C33.525 36.4594 34.0614 35.9133 35.3022 35.0797C36.5429 34.246 37.3378 33.4867 38.8629 32.3623C40.388 31.2379 41.3929 30.4365 42.9309 29.464C44.4722 28.4914 45.4415 28.0455 46.5595 27.5026C47.6775 26.9598 48.1007 26.8887 48.5272 26.7466C48.9538 26.6044 48.8568 26.5688 48.6888 26.7918C48.5208 27.0147 48.0943 27.228 47.6839 27.8548C47.2736 28.4849 46.9957 29.0051 46.637 29.9389C46.2751 30.8727 46.0134 31.5028 45.8777 32.5271C45.7452 33.5546 45.6935 34.133 45.9585 35.0668C46.2234 36.0006 46.469 36.5725 47.2089 37.1993C47.9489 37.8262 48.5369 38.1977 49.6614 38.2042C50.7858 38.2139 51.4353 37.8197 52.8311 37.2381C54.2237 36.6565 55.0218 36.2138 56.6374 35.2962C58.253 34.3785 59.1868 33.6968 60.909 32.6531C62.6312 31.6062 63.649 31.0181 65.2516 30.0649C66.8511 29.1118 67.8042 28.5722 68.9093 27.8904C70.0143 27.2118 70.4732 26.9631 70.7737 26.6593C71.0742 26.3524 70.7769 26.1843 70.4118 26.3621C70.0467 26.543 69.5103 26.8144 68.9513 27.5543C68.3923 28.291 68.0918 29.0051 67.6233 30.0552C67.1548 31.1054 66.725 31.7322 66.6087 32.7985C66.4892 33.868 66.6346 34.5304 67.0288 35.3899C67.4262 36.2494 67.7267 36.6985 68.5862 37.0991C69.4424 37.4966 70.0563 37.6064 71.3197 37.3899C72.5831 37.1702 73.2875 36.776 74.9031 36.0135C76.5219 35.2477 77.4524 34.7242 79.4008 33.5675C81.3492 32.414 82.4736 31.7354 84.645 30.2394C86.8163 28.7466 88.0474 27.8128 90.2542 26.1003C92.4643 24.3846 93.5855 23.4669 95.689 21.6672C97.7925 19.8642 98.9008 18.8884 100.778 17.0919C102.655 15.2954 103.583 14.3584 105.075 12.6846C106.568 11.0141 107.205 10.1482 108.245 8.72971C109.282 7.31123 109.828 6.72317 110.271 5.59227C110.717 4.45814 110.736 3.9347 110.468 3.07198C110.197 2.20603 109.806 1.63088 108.927 1.26576C108.048 0.903876 107.331 0.92327 106.074 1.25285C104.817 1.58565 104.126 2.01539 102.642 2.92334C101.159 3.83129 100.342 4.39028 98.6584 5.7926C96.975 7.19491 96.0024 8.08348 94.2285 9.93493C92.4546 11.7864 91.4077 12.914 89.7922 15.0466C88.1766 17.1791 87.3591 18.3908 86.1507 20.5945C84.9422 22.8013 84.3865 23.9936 83.7532 26.0713C83.1231 28.1521 82.8904 29.1861 82.9971 30.9891C83.1069 32.7953 83.43 33.6903 84.2895 35.0958C85.1522 36.5014 85.7662 37.1831 87.2977 38.02C88.8293 38.8536 89.9182 39.0184 91.9506 39.2769C93.9862 39.5354 95.1882 39.4611 97.4758 39.3125C99.7635 39.1638 101.221 38.8601 103.386 38.5338C105.554 38.2074 106.736 38.0265 108.31 37.6807C109.88 37.3318 110.707 37.1702 111.25 36.7986C111.796 36.4238 111.673 35.9198 111.03 35.8164C110.387 35.7098 109.612 36.0102 108.038 36.2655C106.465 36.5208 105.298 36.7663 103.169 37.0927C101.037 37.4223 99.589 37.7615 97.3821 37.9037C95.1785 38.0491 94.012 38.0685 92.1412 37.8165C90.2736 37.5677 89.3495 37.3609 88.0377 36.6565C86.7226 35.9521 86.309 35.448 85.5788 34.2977C84.8485 33.1442 84.5157 32.4689 84.3897 30.8953C84.2637 29.3218 84.3962 28.3751 84.9519 26.4267C85.5109 24.4783 86.0214 23.286 87.1717 21.1502C88.3252 19.0177 89.1266 17.8189 90.7195 15.7542C92.3092 13.6863 93.3561 12.578 95.1268 10.8203C96.9007 9.06251 97.8927 8.20626 99.5793 6.9655C101.266 5.72798 102.129 5.28531 103.56 4.62293C104.988 3.95731 105.754 3.925 106.73 3.64389C107.706 3.36278 108.016 3.25938 108.439 3.22061C108.866 3.18184 108.846 3.11398 108.856 3.44678C108.862 3.77636 108.853 3.98316 108.488 4.87495C108.119 5.76675 107.883 6.49699 107.017 7.89931C106.148 9.30486 105.55 10.2063 104.151 11.8898C102.752 13.57 101.848 14.5135 100.019 16.31C98.1899 18.1033 97.0881 19.0823 95.004 20.8659C92.9199 22.6527 91.7987 23.5607 89.5918 25.2344C87.385 26.9081 86.1507 27.8225 83.9729 29.2345C81.7919 30.6466 80.6545 31.2928 78.6964 32.2944C76.7416 33.2993 75.7464 33.7226 74.1857 34.2493C72.6283 34.7792 71.8884 34.7792 70.9029 34.944C69.9206 35.1088 69.6428 35.0894 69.2712 35.0732C68.8996 35.0571 68.9545 35.1508 69.0482 34.8632C69.1452 34.5756 69.4037 34.3074 69.7494 33.6321C70.0919 32.9568 70.331 32.4334 70.7704 31.4834C71.2099 30.5335 71.7301 29.8872 71.9466 28.8823C72.1631 27.8775 72.1469 27.1957 71.8464 26.4622C71.5459 25.7255 71.2293 25.2635 70.4409 25.2085C69.6492 25.1504 69.1129 25.4929 67.8979 26.1811C66.683 26.8693 65.9366 27.6384 64.3728 28.6529C62.8089 29.6675 61.7943 30.2524 60.0754 31.254C58.3564 32.2557 57.3806 32.8922 55.7812 33.6644C54.1817 34.4335 53.3255 34.7566 52.0783 35.1055C50.8311 35.4545 50.2559 35.3285 49.545 35.4125C48.8374 35.4965 48.7405 35.6451 48.5337 35.5223C48.3301 35.4028 48.3915 35.2509 48.5208 34.8115C48.65 34.3721 48.8924 34.0651 49.1799 33.3219C49.4707 32.5788 49.6808 32.0198 49.9683 31.0989C50.2527 30.178 50.5564 29.6578 50.6081 28.7176C50.6598 27.7773 50.6436 27.1375 50.2268 26.3976C49.81 25.6544 49.4255 25.1536 48.5272 25.0114C47.6258 24.8725 47.0377 25.1116 45.7226 25.6932C44.4108 26.278 43.561 26.9178 41.9616 27.9227C40.3589 28.9308 39.3056 29.6643 37.7158 30.7306C36.1293 31.7968 35.16 32.4108 34.0194 33.2509C32.8756 34.091 32.378 34.4851 31.9999 34.9278C31.6251 35.3705 31.8998 35.7194 32.1357 35.4577C32.3715 35.1928 32.5654 34.7598 33.1793 33.6127C33.79 32.4625 34.1907 31.5028 35.1956 29.716C36.2004 27.9259 36.9274 26.795 38.2005 24.6689C39.4768 22.5428 40.2232 21.2698 41.5706 19.0887C42.9147 16.9077 43.6934 15.6702 44.931 13.7638C46.1685 11.8575 46.7954 10.9398 47.755 9.55688C48.7114 8.17072 49.2736 7.72159 49.726 6.83948C50.1751 5.96061 50.146 5.60519 50.0136 5.1496C49.8811 4.69724 49.5257 4.48076 49.0604 4.56477Z" fill="#F2F2F2" stroke="#F2F2F2"/>
<path d="M156.393 2.75534C156.213 2.73848 156.211 2.64849 155.905 2.85387C155.608 3.04908 155.36 3.17342 154.89 3.7717C154.421 4.37999 154.208 4.81378 153.557 5.87531C152.895 6.92702 152.537 7.60336 151.602 9.0499C150.677 10.4863 150.102 11.3464 148.892 13.0778C147.692 14.809 146.959 15.812 145.572 17.7065C144.195 19.6008 143.393 20.6349 141.966 22.5401C140.539 24.4453 139.777 25.4988 138.447 27.2422C137.118 28.9957 136.382 29.8087 135.327 31.2773C134.263 32.7361 133.754 33.4151 133.134 34.5561C132.504 35.7073 132.273 36.2314 132.207 37.0027C132.14 37.7639 132.295 38.0213 132.801 38.3825C133.297 38.7339 133.699 38.8269 134.728 38.7689C135.767 38.7108 136.475 38.5684 137.967 38.0923C139.459 37.6162 140.36 37.1304 142.188 36.3884C144.015 35.6464 145.117 35.1671 147.123 34.3819C149.13 33.6068 150.293 33.1864 152.231 32.4625C154.179 31.7484 155.162 31.3912 156.843 30.8118C158.523 30.2323 159.339 30.0081 160.611 29.5558C161.894 29.1033 162.44 28.9038 163.224 28.56C164.008 28.2163 164.306 28.0711 164.542 27.8369C164.778 27.6028 164.745 27.4633 164.414 27.3991C164.093 27.3347 163.763 27.3605 162.916 27.4953C162.068 27.6301 161.479 27.7204 160.155 28.0635C158.841 28.4065 158.015 28.671 156.314 29.2007C154.604 29.7407 153.599 30.0682 151.62 30.7329C149.652 31.3973 148.468 31.7881 146.421 32.5339C144.384 33.2696 143.241 33.7196 141.414 34.4416C139.576 35.1538 138.663 35.5498 137.262 36.1043C135.861 36.6588 135.245 36.8796 134.411 37.1942C133.576 37.5188 133.349 37.6928 133.099 37.7072C132.85 37.7216 132.9 37.7207 133.161 37.246C133.413 36.7716 133.695 36.3366 134.388 35.3343C135.091 34.3419 135.549 33.6638 136.635 32.2647C137.731 30.8653 138.487 30.052 139.847 28.328C141.207 26.604 141.989 25.5602 143.436 23.6646C144.893 21.7689 145.705 20.7346 147.122 18.8496C148.53 16.9647 149.282 15.9614 150.522 14.2195C151.762 12.4876 152.347 11.6173 153.312 10.1602C154.277 8.71319 154.675 8.03613 155.326 6.9646C155.978 5.89307 156.231 5.50858 156.569 4.81258C156.897 4.12675 156.953 3.88575 156.996 3.50493C157.05 3.13394 156.929 3.09604 156.806 2.93815C156.694 2.7901 156.573 2.77219 156.393 2.75534Z" fill="#F2F2F2" stroke="#F2F2F2"/>
<path d="M170.69 25.4691C171.04 25.4529 171.517 25.3046 171.8 24.8896C172.073 24.4848 172.233 23.9319 172.074 23.4046C171.925 22.8771 171.657 22.4517 171.044 22.2624C170.441 22.0829 169.993 22.2007 169.048 22.5073C168.103 22.8138 167.468 23.1049 166.33 23.7849C165.181 24.465 164.5 24.967 163.336 25.8875C162.162 26.8181 161.483 27.44 160.489 28.3975C159.496 29.365 158.985 29.894 158.37 30.7249C157.754 31.5558 157.511 31.97 157.411 32.5519C157.322 33.1335 157.457 33.4412 157.9 33.6435C158.344 33.8558 158.805 33.8678 159.64 33.6031C160.465 33.3287 161 33.0093 162.068 32.3206C163.136 31.6318 163.767 31.0807 164.981 30.1594C166.195 29.2281 166.984 28.6142 168.118 27.6743C169.252 26.7443 169.902 26.1829 170.66 25.4696C171.418 24.7662 171.681 24.4016 171.896 24.1178C172.112 23.844 172.031 23.8154 171.745 24.0604C171.47 24.3053 171.005 24.6134 170.487 25.3326C169.98 26.0515 169.541 26.6793 169.178 27.6458C168.824 28.6121 168.726 29.2739 168.711 30.1643C168.697 31.0547 168.765 31.5036 169.095 32.0979C169.436 32.692 169.71 32.9473 170.383 33.1256C171.057 33.3138 171.516 33.2858 172.472 33.0191C173.437 32.7522 174.033 32.5018 175.181 31.8016C176.329 31.1015 176.939 30.5408 178.232 29.518C179.524 28.4853 180.273 27.8622 181.662 26.6678C183.042 25.4835 183.83 24.8196 185.159 23.5763C186.477 22.3331 187.135 21.6215 188.275 20.4514C189.415 19.2813 189.984 18.6613 190.878 17.7156C191.771 16.7698 192.164 16.3529 192.753 15.7125C193.342 15.0721 193.597 14.7776 193.832 14.5035C194.067 14.2294 194.046 14.1397 193.929 14.3218C193.802 14.514 193.576 14.728 193.238 15.434C192.9 16.14 192.721 16.7232 192.24 17.8518C191.76 18.9904 191.472 19.7055 190.817 21.0971C190.161 22.4888 189.726 23.3465 188.981 24.8197C188.237 26.293 187.841 27.09 187.095 28.4732C186.339 29.8566 185.881 30.5447 185.242 31.746C184.603 32.9574 184.294 33.6129 183.879 34.4902C183.464 35.3676 183.36 35.6895 183.178 36.1227C183.005 36.5558 182.975 36.5663 182.997 36.656C183.028 36.7354 183.257 36.6714 183.315 36.5304C183.372 36.3994 183.476 36.0475 183.275 35.981C183.074 35.9045 182.455 36.0053 182.298 36.1681C182.151 36.3407 182.336 36.6275 182.5 36.8147C182.673 37.0017 182.825 37.129 183.145 37.1235C183.455 37.118 183.656 37.1646 184.079 36.7871C184.503 36.4097 184.707 36.086 185.243 35.2466C185.778 34.3971 186.057 33.7621 186.747 32.5899C187.436 31.4077 187.874 30.73 188.67 29.3559C189.457 27.9819 189.893 27.1942 190.697 25.7199C191.502 24.2457 191.977 23.4172 192.683 22.0047C193.398 20.582 193.796 19.8749 194.244 18.6469C194.693 17.4189 194.842 16.7762 194.926 15.8746C195.01 14.973 194.943 14.5641 194.645 14.1193C194.348 13.6744 194.006 13.5703 193.437 13.6703C192.859 13.7704 192.514 14.0564 191.774 14.6394C191.024 15.2226 190.672 15.6588 189.727 16.5754C188.773 17.4922 188.204 18.0823 187.043 19.2127C185.883 20.3431 185.234 21.0245 183.905 22.2179C182.576 23.4113 181.786 24.0352 180.406 25.1794C179.016 26.3239 178.247 26.9474 176.984 27.9296C175.721 28.9118 175.119 29.4023 174.091 30.0904C173.063 30.7884 172.557 30.9973 171.843 31.3698C171.13 31.7524 170.862 31.917 170.523 31.983C170.175 32.0491 170.144 31.9996 170.128 31.6998C170.123 31.3899 170.208 31.0983 170.457 30.4639C170.706 29.8394 171.008 29.3841 171.383 28.5374C171.759 27.6808 172.098 27.0847 172.333 26.2205C172.578 25.3561 172.728 24.7834 172.598 24.2156C172.458 23.6479 172.244 23.4016 171.654 23.3819C171.073 23.362 170.617 23.57 169.656 24.1069C168.705 24.6436 168.065 25.2048 166.87 26.0658C165.674 26.9268 164.895 27.5305 163.68 28.4219C162.466 29.3132 161.784 29.7851 160.806 30.5223C159.839 31.2493 159.395 31.5971 158.824 32.0972C158.242 32.5974 158.057 32.8407 157.94 33.0227C157.823 33.1948 157.913 33.2132 158.249 32.9773C158.575 32.7416 158.89 32.4661 159.599 31.8336C160.308 31.2011 160.789 30.6727 161.784 29.8251C162.79 28.9675 163.46 28.3857 164.595 27.5557C165.731 26.7158 166.414 26.3138 167.463 25.6654C168.512 25.017 169.137 24.7461 169.859 24.3034C170.572 23.8609 170.858 23.6359 171.064 23.4422C171.271 23.2486 171.071 23.2621 170.893 23.3552C170.714 23.4383 170.347 23.5748 170.172 23.8979C169.998 24.221 169.925 24.6523 170.031 24.9705C170.136 25.2787 170.34 25.4852 170.69 25.4691Z" fill="#F2F2F2" stroke="#F2F2F2"/>
<path d="M188.242 12.6908C188.542 12.6956 188.718 12.5025 189.204 12.254C189.7 12.0053 189.976 11.8004 190.71 11.4476C191.444 11.0947 191.89 10.8169 192.884 10.4795C193.868 10.1422 194.495 9.97128 195.661 9.75089C196.828 9.5305 197.487 9.45901 198.715 9.36755C199.944 9.2761 200.613 9.23441 201.804 9.28363C202.995 9.33285 203.657 9.41129 204.68 9.61346C205.714 9.82545 206.177 9.95741 206.923 10.3044C207.679 10.6513 208.013 10.8755 208.421 11.3485C208.819 11.8116 208.943 12.0394 208.934 12.6397C208.925 13.2499 208.841 13.6215 208.364 14.3899C207.888 15.1484 207.495 15.5952 206.55 16.4619C205.595 17.3387 204.904 17.8108 203.619 18.7334C202.326 19.6661 201.495 20.2307 200.09 21.0953C198.695 21.9698 197.882 22.3441 196.614 23.0863C195.337 23.8187 194.663 24.2005 193.724 24.787C192.784 25.3635 192.417 25.5599 191.914 25.9888C191.412 26.4176 191.286 26.6698 191.221 26.941C191.155 27.2022 191.497 27.2862 191.598 27.3245C191.698 27.3627 191.715 27.1624 191.704 27.1426C191.704 27.1226 191.416 27.2477 191.586 27.2347C191.756 27.2117 191.967 27.268 192.553 27.0578C193.129 26.8477 193.506 26.6511 194.488 26.1739C195.47 25.6967 196.154 25.3347 197.472 24.6516C198.79 23.9684 199.624 23.6038 201.089 22.7481C202.554 21.8924 203.425 21.3372 204.788 20.3632C206.141 19.3795 206.872 18.8766 207.885 17.8488C208.897 16.811 209.367 16.2327 209.858 15.1839C210.35 14.1252 210.41 13.5241 210.343 12.5851C210.277 11.6461 210.049 11.22 209.506 10.4894C208.974 9.75858 208.538 9.43613 207.639 8.93175C206.75 8.42718 206.207 8.24663 205.052 7.96674C203.907 7.67669 203.195 7.58908 201.903 7.51161C200.612 7.42414 199.912 7.47636 198.593 7.54939C197.285 7.62225 196.605 7.65411 195.328 7.85642C194.062 8.05856 193.344 8.1711 192.22 8.55076C191.106 8.93025 190.552 9.23 189.75 9.73406C188.959 10.2379 188.635 10.5837 188.234 11.0807C187.832 11.5778 187.738 11.8995 187.733 12.2197C187.739 12.5396 187.952 12.6859 188.242 12.6908Z" fill="#F2F2F2" stroke="#F2F2F2"/>
<path d="M214.636 22.4709C214.379 22.5699 214.335 22.7315 213.97 23.1745C213.605 23.6175 213.317 23.9578 212.803 24.6962C212.298 25.4343 211.977 25.9958 211.428 26.8755C210.868 27.7556 210.524 28.2279 210.024 29.0958C209.534 29.9635 209.211 30.455 208.967 31.194C208.723 31.933 208.644 32.2659 208.793 32.8011C208.952 33.3359 209.172 33.6284 209.731 33.879C210.28 34.13 210.702 34.1653 211.558 34.0453C212.424 33.925 212.917 33.7077 214.033 33.2885C215.149 32.8693 215.79 32.5968 217.139 31.9593C218.487 31.3219 219.272 30.8842 220.766 30.1016C222.259 29.309 223.124 28.8585 224.606 28.0163C226.087 27.1741 226.901 26.7054 228.163 25.8808C229.435 25.046 230.069 24.5935 230.934 23.8529C231.808 23.1019 232.167 22.7592 232.495 22.1374C232.834 21.5252 232.833 21.205 232.608 20.7726C232.382 20.3302 232.053 20.0816 231.349 19.9661C230.654 19.8403 230.104 19.8594 229.114 20.1542C228.114 20.4493 227.505 20.7907 226.387 21.4301C225.268 22.0695 224.604 22.523 223.522 23.3613C222.451 24.1992 221.838 24.6909 220.999 25.6007C220.17 26.5002 219.757 27.0049 219.348 27.8897C218.928 28.7649 218.805 29.2395 218.921 29.9859C219.027 30.7426 219.271 31.1344 219.9 31.6528C220.538 32.1708 221.016 32.3942 222.094 32.5868C223.181 32.7889 223.902 32.7838 225.318 32.6443C226.724 32.5151 227.598 32.3345 229.165 31.9196C230.731 31.4947 231.599 31.1441 233.139 30.54C234.679 29.9359 235.465 29.5382 236.874 28.8987C238.282 28.2492 239.02 27.9032 240.181 27.3323C241.342 26.7714 241.943 26.5003 242.668 26.0647C243.384 25.6295 243.605 25.3816 243.778 25.1755C243.951 24.9593 243.809 24.9242 243.532 25.0139C243.255 25.1037 242.911 25.2658 242.393 25.6341C241.876 26.0024 241.416 26.2886 240.945 26.8653C240.475 27.4421 240.202 27.9319 240.032 28.5182C239.863 29.1045 239.866 29.4746 240.088 29.8071C240.32 30.1492 240.563 30.2407 241.153 30.2302C241.753 30.2092 242.118 30.0764 243.066 29.7231C244.015 29.3797 244.623 29.0383 245.896 28.5036C247.167 27.9589 248.065 27.5773 249.426 27.0295C250.778 26.482 251.591 26.2535 252.684 25.765C253.788 25.2862 254.508 24.9809 254.916 24.6264C255.324 24.282 255.267 24.0938 254.734 24.0124C254.201 23.9409 253.445 24.0574 252.241 24.2495C251.037 24.4517 250.171 24.582 248.725 25.0127C247.27 25.4438 246.292 25.8181 244.981 26.3842C243.67 26.9603 243.033 27.3328 242.171 27.8632C241.299 28.384 241.007 28.6443 240.66 29.0066C240.313 29.379 240.289 29.5699 240.434 29.6949C240.578 29.81 240.888 29.8191 241.371 29.5922C241.863 29.3648 242.334 29.0983 242.856 28.5597C243.377 28.0212 243.681 27.5403 243.978 26.8895C244.266 26.2391 244.36 25.7955 244.303 25.3072C244.246 24.8289 244.128 24.6029 243.684 24.4783C243.229 24.3641 242.912 24.4452 242.071 24.7048C241.229 24.9643 240.649 25.2547 239.456 25.7667C238.273 26.2783 237.536 26.6542 236.146 27.2531C234.746 27.8623 233.969 28.2397 232.467 28.7924C230.975 29.3348 230.145 29.624 228.667 29.9858C227.189 30.3576 226.362 30.4665 225.087 30.6311C223.812 30.8057 223.183 30.8277 222.292 30.8188C221.391 30.8102 221.059 30.7617 220.602 30.5676C220.155 30.383 220.021 30.2677 220.028 29.8872C220.034 29.4967 220.176 29.2417 220.625 28.6456C221.074 28.0396 221.46 27.6158 222.275 26.887C223.09 26.1581 223.684 25.6971 224.72 24.9805C225.755 24.2639 226.432 23.87 227.452 23.2841C228.472 22.6981 229.034 22.4484 229.831 22.0603C230.628 21.6723 230.994 21.5494 231.447 21.3535C231.891 21.1579 232.047 21.0624 232.088 21.0809C232.128 21.0895 232.07 21.1316 231.64 21.4368C231.22 21.7316 230.859 21.9944 229.979 22.5854C229.089 23.1769 228.474 23.6186 227.22 24.3728C225.956 25.1274 225.16 25.5655 223.687 26.3574C222.214 27.1593 221.339 27.6 219.854 28.3523C218.38 29.1042 217.604 29.5316 216.285 30.138C214.975 30.7441 214.322 30.957 213.276 31.3838C212.241 31.8202 211.767 32.0168 211.097 32.3004C210.426 32.5839 210.221 32.7212 209.934 32.8113C209.657 32.891 209.617 32.9024 209.701 32.7194C209.784 32.5363 209.98 32.4194 210.363 31.9057C210.755 31.3917 211.089 30.9198 211.652 30.1497C212.226 29.3792 212.62 28.9251 213.22 28.0537C213.82 27.1822 214.231 26.6475 214.662 25.792C215.093 24.9464 215.255 24.4305 215.373 23.806C215.491 23.1715 215.392 22.9148 215.253 22.6495C215.103 22.3745 214.892 22.3618 214.636 22.4709Z" fill="#F2F2F2" stroke="#F2F2F2"/>
<path d="M220.431 14.3304C220.431 14.3304 222.072 13.2117 222.056 13.0909C222.044 12.9702 221.719 12.8064 221.344 12.7058C220.972 12.6086 220.567 12.6053 220.186 12.5946C219.802 12.584 219.476 12.5724 219.429 12.6493C219.382 12.7262 217.585 14.8858 217.982 15.0172C218.379 15.152 220.431 14.3304 220.431 14.3304Z" fill="#F2F2F2" stroke="#F2F2F2"/>
</svg>
