<svg width="268" height="49" viewBox="0 0 268 49" fill="none" xmlns="http://www.w3.org/2000/svg">
<path d="M16.9541 6.33485C16.7741 6.62485 16.8041 6.90484 16.6741 7.70484C16.5541 8.50484 16.5141 9.02484 16.3341 10.3248C16.1541 11.6148 16.1141 12.4249 15.7841 14.1649C15.4641 15.9149 15.2541 16.9848 14.7241 19.0448C14.1841 21.1148 13.8541 22.2448 13.1341 24.4848C12.4041 26.7348 11.9541 27.9849 11.0741 30.2749C10.2041 32.5549 9.68415 33.7549 8.76415 35.9149C7.84415 38.0649 7.31415 39.2349 6.46415 41.0349C5.61415 42.8349 5.17415 43.6749 4.53415 44.9149C3.88415 46.1549 3.58415 46.6949 3.22414 47.2549C2.85414 47.8249 2.78415 48.0149 2.69415 47.7449C2.61415 47.4749 2.66414 47.0849 2.79414 45.9049C2.92414 44.7249 3.03414 43.7748 3.34414 41.8349C3.65414 39.8949 3.79415 38.6049 4.32415 36.2149C4.85415 33.8149 5.21414 32.4048 6.00414 29.8648C6.80414 27.3248 7.26414 25.9549 8.29414 23.5049C9.31414 21.0449 9.89414 19.8148 11.1241 17.5848C12.3541 15.3548 13.0741 14.2649 14.4441 12.3449C15.8041 10.4149 16.5441 9.48486 17.9541 7.97486C19.3741 6.46486 20.1041 5.78484 21.5041 4.79484C22.8941 3.79484 23.6141 3.44484 24.9241 2.98484C26.2441 2.52484 26.9241 2.47485 28.0541 2.49485C29.1941 2.52485 29.7641 2.68486 30.6041 3.12486C31.4541 3.57486 31.8241 3.91486 32.2941 4.72486C32.7641 5.52486 32.9141 6.01487 32.9441 7.16487C32.9741 8.30487 32.9041 8.96486 32.4441 10.4349C31.9741 11.8949 31.6041 12.7549 30.6241 14.4649C29.6341 16.1749 28.9641 17.1749 27.5141 18.9749C26.0541 20.7849 25.1141 21.7748 23.3641 23.4848C21.6041 25.1948 20.5341 26.0548 18.7341 27.5148C16.9241 28.9748 15.9041 29.6849 14.3541 30.7749C12.8041 31.8549 11.9641 32.2949 10.9941 32.9449C10.0141 33.5849 9.60415 33.8248 9.47414 34.0148C9.33414 34.1948 9.50414 34.2348 10.3141 33.8648C11.1241 33.4949 12.1241 33.0349 13.5241 32.1649C14.9241 31.3049 15.9641 30.5848 17.3141 29.5448C18.6641 28.5048 19.7741 27.6249 20.2841 26.9649C20.8041 26.3049 20.7041 26.1149 19.8741 26.2549C19.0341 26.3949 17.6541 26.8649 16.1141 27.6549C14.5741 28.4549 13.4941 29.1848 12.1641 30.2348C10.8441 31.2848 10.0241 32.0849 9.47414 32.9149C8.92414 33.7449 9.00414 34.1349 9.43414 34.3849C9.85414 34.6349 10.4341 34.6048 11.6141 34.1748C12.7841 33.7348 13.6541 33.2449 15.3041 32.1949C16.9541 31.1549 17.9941 30.4049 19.8641 28.9349C21.7341 27.4649 22.8441 26.5949 24.6741 24.8449C26.5041 23.0949 27.4941 22.0749 29.0141 20.1849C30.5341 18.2949 31.2441 17.2549 32.2741 15.4049C33.3041 13.5549 33.7041 12.6049 34.1641 10.9349C34.6241 9.27486 34.6841 8.46486 34.5641 7.06486C34.4441 5.66486 34.2241 4.99484 33.5641 3.95484C32.9141 2.90484 32.3841 2.42485 31.2941 1.83485C30.2041 1.25485 29.4741 1.07484 28.1041 1.01484C26.7341 0.954842 25.9441 1.06486 24.4441 1.56486C22.9441 2.05486 22.1341 2.45486 20.6041 3.50486C19.0641 4.56486 18.2741 5.27486 16.7641 6.84486C15.2641 8.41486 14.4941 9.37487 13.0641 11.3549C11.6341 13.3349 10.9041 14.4549 9.61415 16.7449C8.33415 19.0349 7.72415 20.2948 6.64415 22.8048C5.55415 25.3048 5.05414 26.6849 4.18414 29.2749C3.31414 31.8649 2.89414 33.2849 2.29414 35.7449C1.70414 38.1949 1.44415 39.5048 1.21415 41.5448C0.974147 43.5948 0.924146 44.6148 1.12415 45.9548C1.32415 47.2848 1.64414 47.8149 2.20414 48.2149C2.76414 48.6249 3.20414 48.4848 3.93414 47.9848C4.66414 47.4748 5.03415 46.9349 5.85415 45.6949C6.66415 44.4549 7.08414 43.5949 8.00414 41.7849C8.91414 39.9749 9.45414 38.7949 10.4141 36.6249C11.3741 34.4549 11.8841 33.2449 12.7841 30.9349C13.6941 28.6249 14.1541 27.3548 14.9141 25.0748C15.6841 22.8048 16.0341 21.6549 16.6141 19.5548C17.1841 17.4448 17.4741 16.3448 17.8041 14.5448C18.1441 12.7348 18.2241 11.8749 18.2941 10.5049C18.3641 9.13486 18.3041 8.53486 18.1641 7.69486C18.0241 6.84486 17.8441 6.54485 17.6041 6.27485C17.3641 5.99485 17.1441 6.04485 16.9541 6.33485Z" fill="#F2F2F2" stroke="#F2F2F2"/>
<path d="M44.3946 8.04487C44.1646 8.03487 44.0646 7.99489 43.6446 8.31489C43.2246 8.64489 42.9646 8.8549 42.3046 9.6649C41.6446 10.4849 41.2846 11.0049 40.3446 12.3849C39.4046 13.7649 38.7846 14.7049 37.6146 16.5649C36.4346 18.4249 35.7246 19.5749 34.4846 21.6849C33.2446 23.7849 32.5446 24.9649 31.4146 27.0849C30.2846 29.2149 29.6846 30.3549 28.8346 32.2949C27.9846 34.2449 27.6046 35.2349 27.1646 36.8249C26.7246 38.4049 26.5846 39.1349 26.6346 40.2249C26.6746 41.3149 26.8546 41.7649 27.3946 42.2449C27.9346 42.7349 28.3846 42.7949 29.3446 42.6649C30.3146 42.5249 30.9546 42.2649 32.2246 41.5749C33.4946 40.8849 34.2246 40.3049 35.6846 39.1949C37.1446 38.0949 37.9946 37.3049 39.5146 36.0549C41.0346 34.8049 41.9546 34.0549 43.2846 32.9249C44.6146 31.8049 45.3246 31.1949 46.1646 30.4349C47.0146 29.6749 47.2846 29.3649 47.5246 29.1149C47.7646 28.8649 47.6446 28.8949 47.3946 29.1849C47.1346 29.4649 46.7746 29.7749 46.2346 30.5449C45.6946 31.3149 45.2546 31.9449 44.7146 33.0249C44.1646 34.1149 43.8646 34.8449 43.4946 35.9649C43.1246 37.0849 42.9346 37.6649 42.8546 38.6049C42.7746 39.5549 42.7746 40.0349 43.0946 40.6849C43.4246 41.3449 43.7346 41.6349 44.4746 41.8949C45.2046 42.1549 45.7346 42.1449 46.7746 41.9849C47.8146 41.8249 48.4246 41.5949 49.6546 41.0749C50.8946 40.5549 51.6246 40.1549 52.9646 39.3749C54.2946 38.5949 55.0346 38.0649 56.3146 37.1749C57.5946 36.2849 58.2646 35.7349 59.3446 34.9149C60.4146 34.1049 60.9646 33.6949 61.7046 33.0949C62.4446 32.4949 62.7446 32.2149 63.0346 31.9149C63.3246 31.6249 63.2846 31.5349 63.1646 31.6149C63.0546 31.7049 62.8046 31.8749 62.4546 32.3349C62.1046 32.7849 61.7946 33.1449 61.4246 33.9049C61.0546 34.6549 60.8546 35.2249 60.6146 36.0949C60.3646 36.9749 60.2546 37.4349 60.1946 38.2749C60.1446 39.1049 60.1246 39.5649 60.3546 40.2549C60.5846 40.9449 60.7946 41.3249 61.3546 41.7349C61.9146 42.1549 62.3446 42.2749 63.1646 42.3149C63.9846 42.3549 64.4546 42.2649 65.4446 41.9249C66.4346 41.5949 66.9746 41.3349 68.1346 40.6449C69.3046 39.9549 69.9446 39.4849 71.2646 38.4749C72.5846 37.4549 73.2946 36.8349 74.7446 35.5749C76.2046 34.3049 77.0046 33.5849 78.5146 32.1549C80.0246 30.7149 80.8046 29.9049 82.3046 28.3949C83.8046 26.8749 84.5546 26.0549 86.0046 24.5549C87.4546 23.0549 88.2546 22.2949 89.5646 20.8649C90.8646 19.4349 91.4846 18.7049 92.5246 17.4049C93.5546 16.1049 94.0646 15.4849 94.7246 14.3849C95.3946 13.2849 95.6546 12.7649 95.8546 11.9149C96.0646 11.0549 96.0246 10.6849 95.7446 10.1349C95.4746 9.5849 95.2046 9.26488 94.4946 9.17488C93.7846 9.08488 93.2346 9.1649 92.1946 9.6949C91.1646 10.2249 90.5846 10.6949 89.3046 11.8249C88.0246 12.9549 87.2846 13.7349 85.8046 15.3449C84.3246 16.9549 83.4346 17.9349 81.9246 19.8949C80.4046 21.8549 79.5546 23.0249 78.2346 25.1449C76.9046 27.2649 76.1846 28.4249 75.2746 30.4749C74.3746 32.5149 74.0046 33.5949 73.7146 35.3649C73.4346 37.1249 73.4946 37.9749 73.8646 39.2949C74.2346 40.6049 74.6346 41.1449 75.5746 41.9249C76.5146 42.6949 77.3146 42.8949 78.5546 43.1649C79.7846 43.4249 80.6646 43.3849 81.7346 43.2449C82.8046 43.1049 83.4846 42.7549 83.9046 42.4649C84.3146 42.1749 84.2546 41.9549 83.8046 41.7749C83.3546 41.6049 82.6646 41.6649 81.6746 41.6049C80.6846 41.5349 79.9146 41.5949 78.8546 41.4549C77.7946 41.3049 77.1146 41.3649 76.3646 40.8649C75.6246 40.3749 75.3446 40.0149 75.1146 38.9749C74.8946 37.9249 74.8746 37.2049 75.2246 35.6449C75.5746 34.0949 75.9446 33.0949 76.8546 31.2049C77.7746 29.3049 78.4846 28.1749 79.8146 26.1649C81.1346 24.1449 81.9746 22.9949 83.4746 21.1149C84.9746 19.2349 85.8646 18.2949 87.3146 16.7349C88.7546 15.1849 89.5346 14.4649 90.7046 13.3549C91.8746 12.2549 92.3946 11.8349 93.1646 11.2249C93.9346 10.6049 94.2046 10.4349 94.5646 10.2749C94.9246 10.1149 94.9246 10.1849 94.9446 10.4249C94.9646 10.6749 94.9546 10.8749 94.6546 11.4949C94.3546 12.1249 94.1246 12.5749 93.4346 13.5449C92.7546 14.5149 92.2646 15.1249 91.2446 16.3549C90.2146 17.5849 89.5946 18.3049 88.2946 19.7049C86.9946 21.0949 86.1946 21.8349 84.7346 23.3249C83.2846 24.8049 82.5246 25.6249 81.0246 27.1149C79.5246 28.6149 78.7446 29.3949 77.2446 30.7949C75.7346 32.1949 74.9346 32.8949 73.4946 34.1249C72.0646 35.3449 71.3546 35.9549 70.0846 36.9349C68.8046 37.9049 68.1946 38.3449 67.1446 39.0049C66.0846 39.6649 65.6046 39.8749 64.7946 40.2249C63.9946 40.5649 63.6446 40.6449 63.1046 40.7449C62.5546 40.8349 62.3546 40.8549 62.0746 40.6849C61.8046 40.5249 61.7646 40.3649 61.7346 39.9249C61.6946 39.4949 61.7446 39.1449 61.9046 38.5149C62.0646 37.8849 62.2146 37.5149 62.5346 36.7749C62.8546 36.0249 63.2046 35.5749 63.4946 34.8049C63.7946 34.0249 63.9746 33.5549 64.0246 32.8749C64.0746 32.2049 64.0146 31.7949 63.7446 31.4149C63.4646 31.0449 63.2346 30.9349 62.6446 31.0049C62.0646 31.0849 61.6846 31.2949 60.8146 31.7849C59.9446 32.2749 59.4146 32.7049 58.2946 33.4649C57.1846 34.2249 56.5046 34.7449 55.2346 35.5849C53.9646 36.4149 53.2346 36.9049 51.9546 37.6349C50.6746 38.3649 49.9546 38.6949 48.8346 39.2249C47.7146 39.7449 47.1646 39.9549 46.3446 40.2449C45.5246 40.5349 45.1746 40.6649 44.7246 40.6749C44.2846 40.6849 44.1846 40.6449 44.1246 40.2949C44.0546 39.9449 44.1546 39.6249 44.3946 38.9049C44.6346 38.1949 44.8546 37.6849 45.3346 36.7149C45.8146 35.7549 46.2646 35.1449 46.8046 34.0749C47.3346 33.0149 47.7146 32.3449 48.0046 31.3849C48.2846 30.4349 48.3646 29.8949 48.2246 29.3049C48.0946 28.7149 47.9346 28.4549 47.3346 28.4349C46.7446 28.4149 46.3146 28.5849 45.2646 29.1849C44.2246 29.7849 43.5146 30.3849 42.1046 31.4449C40.6946 32.4949 39.7746 33.2449 38.2346 34.4649C36.6946 35.6749 35.8046 36.4249 34.3946 37.5149C32.9846 38.6049 32.2746 39.1349 31.1846 39.9049C30.0946 40.6749 29.6146 41.0249 28.9546 41.3749C28.3046 41.7249 28.1446 41.8849 27.9246 41.6649C27.7146 41.4549 27.7246 41.1649 27.8746 40.2849C28.0146 39.4149 28.1546 38.7449 28.6646 37.2949C29.1746 35.8349 29.5446 34.8749 30.4146 33.0149C31.2846 31.1549 31.8846 30.0349 33.0346 27.9749C34.1946 25.9149 34.9146 24.7649 36.1846 22.7049C37.4546 20.6549 38.2046 19.5249 39.3846 17.6949C40.5746 15.8649 41.2046 14.9449 42.1146 13.5649C43.0146 12.1749 43.3846 11.6649 43.9046 10.7749C44.4246 9.88489 44.5246 9.58488 44.7046 9.11488C44.8846 8.63488 44.8646 8.60488 44.8046 8.39488C44.7346 8.18488 44.6246 8.06487 44.3946 8.04487Z" fill="#F2F2F2" stroke="#F2F2F2"/>
<path d="M131.033 8.23877C130.764 8.27845 130.713 8.22176 130.449 8.48819C130.183 8.75461 130.007 8.79996 129.709 9.56522C129.409 10.3333 129.494 10.9994 128.953 12.3201C128.408 13.6409 127.952 14.5281 126.991 16.1691C126.033 17.8102 125.393 18.7398 124.154 20.5254C122.913 22.3082 122.184 23.269 120.793 25.0886C119.401 26.9082 118.565 27.9257 117.19 29.6178C115.818 31.307 115.099 32.1403 113.922 33.5376C112.749 34.9349 112.1 35.55 111.318 36.6072C110.538 37.6672 110.15 38.047 110.022 38.8293C109.892 39.6115 110.141 40.0395 110.677 40.5242C111.213 41.0088 111.697 41.2667 112.701 41.2497C113.707 41.2299 114.316 40.8529 115.699 40.4306C117.083 40.0083 117.93 39.6654 119.616 39.1353C121.303 38.6082 122.289 38.2936 124.129 37.7862C125.968 37.2789 127.014 37.004 128.814 36.5987C130.616 36.1934 131.543 36.0091 133.139 35.7569C134.732 35.5075 135.471 35.4224 136.784 35.3459C138.093 35.2694 138.79 35.4366 139.695 35.3799C140.596 35.3232 140.823 35.2042 141.302 35.0625C141.778 34.9236 141.919 34.8783 142.081 34.6827C142.243 34.4871 142.274 34.2972 142.115 34.0846C141.956 33.8692 141.8 33.7445 141.293 33.6113C140.789 33.4781 140.519 33.3676 139.584 33.4129C138.649 33.4583 137.951 33.6227 136.616 33.8381C135.284 34.0535 134.528 34.1697 132.915 34.4843C131.299 34.7989 130.367 34.9888 128.544 35.4054C126.722 35.8192 125.67 36.0942 123.805 36.559C121.943 37.0238 120.937 37.3101 119.225 37.7239C117.513 38.1377 116.598 38.3616 115.246 38.6252C113.897 38.8859 113.259 38.8604 112.468 39.0305C111.678 39.2005 111.499 39.4244 111.295 39.4726C111.091 39.5236 111.201 39.6795 111.448 39.2771C111.692 38.8746 111.839 38.458 112.517 37.4546C113.194 36.4541 113.738 35.7059 114.835 34.266C115.929 32.8291 116.646 31.9759 118.001 30.264C119.353 28.5521 120.189 27.5289 121.6 25.7122C123.012 23.8925 123.749 22.9346 125.055 21.1716C126.362 19.4115 127.031 18.4961 128.136 16.8975C129.245 15.3018 129.757 14.4515 130.588 13.1903C131.418 11.929 131.946 11.4472 132.291 10.5912C132.634 9.73528 132.408 9.36965 132.308 8.91049C132.209 8.45417 132.045 8.43434 131.79 8.29829C131.535 8.16508 131.302 8.20192 131.033 8.23877Z" fill="#F2F2F2" stroke="#F2F2F2"/>
<path d="M157.641 27.5802C157.589 27.2486 157.578 27.0729 157.218 26.8178C156.858 26.5598 156.538 26.3218 155.841 26.2991C155.141 26.2764 154.656 26.3586 153.721 26.7044C152.785 27.0502 152.267 27.4016 151.164 28.0308C150.059 28.6572 149.415 29.054 148.197 29.842C146.975 30.6299 146.247 31.0834 145.059 31.9705C143.872 32.8576 143.234 33.4188 142.262 34.2804C141.289 35.1392 140.655 35.4822 140.195 36.2758C139.736 37.0694 139.79 37.5824 139.966 38.2484C140.144 38.9117 140.434 39.2773 141.083 39.6004C141.732 39.9207 142.296 40.0709 143.211 39.8583C144.124 39.6458 144.583 39.1866 145.657 38.5347C146.731 37.8828 147.341 37.4435 148.576 36.5961C149.809 35.7486 150.552 35.1846 151.827 34.2975C153.103 33.4103 153.979 32.9001 154.954 32.1632C155.926 31.4263 156.436 31.072 156.694 30.6072C156.952 30.1452 156.643 29.8533 156.246 29.8505C155.846 29.8476 155.328 30.0177 154.707 30.5987C154.083 31.1826 153.624 31.8288 153.134 32.7613C152.641 33.6966 152.323 34.3201 152.25 35.2668C152.176 36.2134 152.346 36.7746 152.768 37.4974C153.191 38.2229 153.542 38.6254 154.364 38.8833C155.189 39.1412 155.818 39.1498 156.889 38.7898C157.964 38.4298 158.491 37.914 159.727 37.0836C160.959 36.2531 161.64 35.7599 163.062 34.6432C164.488 33.5237 165.353 32.818 166.841 31.4972C168.329 30.1792 169.085 29.3885 170.505 28.045C171.925 26.7016 172.665 25.9788 173.94 24.7799C175.219 23.5782 175.882 22.9518 176.894 22.0392C177.906 21.1265 178.566 20.8062 179.005 20.2167C179.448 19.63 179.323 19.2701 179.102 19.1C178.881 18.9328 178.427 18.9158 177.903 19.3693C177.378 19.8199 177.126 20.3244 176.477 21.3674C175.828 22.4104 175.44 23.2182 174.658 24.5758C173.875 25.9335 173.408 26.7214 172.563 28.1556C171.718 29.5897 171.225 30.3578 170.434 31.7438C169.641 33.1297 169.202 33.9035 168.601 35.0854C168 36.2701 167.529 36.8058 167.43 37.6589C167.334 38.5149 167.623 39.0109 168.113 39.3567C168.601 39.7053 169.139 39.8356 169.876 39.3992C170.613 38.9627 170.905 38.3221 171.798 37.1771C172.691 36.0349 173.201 35.1818 174.334 33.6796C175.471 32.1746 176.148 31.2591 177.475 29.6606C178.801 28.062 179.572 27.1919 180.964 25.6841C182.356 24.1762 183.056 23.4166 184.436 22.1214C185.816 20.8289 186.596 20.194 187.865 19.2162C189.138 18.2355 189.727 17.8047 190.788 17.2237C191.848 16.6427 192.352 16.5321 193.168 16.3111C193.985 16.09 194.336 16.0928 194.866 16.1212C195.393 16.1495 195.504 16.243 195.807 16.4443C196.107 16.6455 196.218 16.8099 196.371 17.1273C196.524 17.4419 196.538 17.6318 196.575 18.0258C196.612 18.4169 196.669 18.6352 196.555 19.0887C196.442 19.5393 196.306 19.7462 196.005 20.2847C195.708 20.8204 195.603 21.1775 195.056 21.7727C194.512 22.3679 194.121 22.6655 193.276 23.2636C192.434 23.8616 191.862 24.1989 190.841 24.7686C189.821 25.3354 189.248 25.6075 188.177 26.1035C187.106 26.5995 186.485 26.8489 185.485 27.2514C184.484 27.6539 183.937 27.7474 183.175 28.113C182.409 28.4815 182.109 28.6345 181.667 29.0909C181.225 29.5444 181.04 29.8278 180.964 30.389C180.887 30.9473 180.936 31.3611 181.281 31.8883C181.63 32.4183 181.964 32.7613 182.696 33.0305C183.43 33.3026 183.937 33.2516 184.952 33.2459C185.966 33.2403 186.584 33.1382 187.772 33.0079C188.957 32.8775 189.654 32.801 190.878 32.594C192.103 32.3843 192.732 32.2029 193.9 31.9705C195.064 31.7353 195.694 31.6162 196.708 31.4235C197.723 31.2336 198.324 31.2506 198.97 31.0154C199.616 30.7801 199.82 30.4768 199.942 30.2473C200.064 30.0205 199.9 29.8505 199.577 29.8731C199.254 29.8986 198.868 29.9355 198.324 30.3691C197.777 30.7999 197.471 31.2733 196.853 32.0329C196.235 32.7924 195.725 33.3168 195.232 34.1642C194.741 35.0145 194.486 35.4765 194.396 36.2758C194.305 37.0751 194.373 37.5427 194.781 38.1578C195.189 38.7728 195.597 39.2319 196.436 39.3567C197.278 39.4814 197.828 39.1923 198.979 38.7841C200.129 38.3732 200.764 37.999 202.19 37.3046C203.615 36.6074 204.494 36.1482 206.11 35.3036C207.722 34.459 208.655 33.9375 210.265 33.0815C211.875 32.2227 212.722 31.7891 214.156 31.0182C215.593 30.2473 216.415 29.8958 217.444 29.2269C218.473 28.558 218.949 28.2774 219.3 27.6681C219.655 27.0587 219.561 26.6335 219.21 26.1829C218.858 25.7322 218.368 25.3241 217.54 25.4148C216.71 25.5055 216.126 25.9306 215.063 26.6335C214 27.3364 213.354 27.9345 212.226 28.9265C211.095 29.9156 210.435 30.5108 209.423 31.585C208.408 32.6564 207.861 33.2261 207.156 34.2946C206.447 35.3631 205.996 35.9413 205.886 36.9277C205.778 37.9168 206.019 38.5404 206.611 39.2291C207.204 39.9178 207.711 40.1956 208.848 40.3713C209.981 40.5471 210.772 40.394 212.291 40.1049C213.813 39.8187 214.683 39.4955 216.452 38.9372C218.223 38.3788 219.235 38.016 221.14 37.316C223.047 36.6131 224.161 36.1737 225.984 35.4312C227.803 34.6886 228.719 34.2124 230.246 33.6002C231.774 32.988 232.61 32.7556 233.619 32.373C234.628 31.9903 234.988 31.9138 235.292 31.6899C235.592 31.466 235.436 31.2874 235.13 31.2506C234.824 31.2166 234.348 31.2818 233.755 31.5142C233.163 31.7494 232.636 31.9223 232.168 32.4268C231.698 32.9285 231.505 33.4075 231.414 34.0254C231.326 34.6432 231.42 35.1052 231.717 35.519C232.018 35.93 232.287 36.1738 232.914 36.0887C233.54 36.0009 233.835 35.6267 234.852 35.0826C235.87 34.5412 236.516 34.0792 238.001 33.3735C239.489 32.6677 240.427 32.2086 242.287 31.5567C244.146 30.902 245.24 30.6129 247.295 30.1112C249.347 29.6124 250.517 29.38 252.549 29.0484C254.579 28.7196 255.576 28.5835 257.447 28.4645C259.318 28.3426 258.349 28.4361 259.9 28.4446C261.447 28.4503 262.133 28.5325 263.196 28.4957C264.259 28.456 264.806 28.4702 265.217 28.2547C265.625 28.0422 265.645 27.6624 265.242 27.4243C264.843 27.1834 264.284 27.1125 263.21 27.0502C262.139 26.9907 261.447 27.0672 259.877 27.121C258.307 27.1777 259.258 27.155 257.359 27.3279C255.457 27.5008 254.44 27.6482 252.374 27.9883C250.31 28.3284 249.134 28.5524 247.037 29.0285C244.942 29.5018 243.828 29.7881 241.901 30.3578C239.971 30.9275 238.996 31.3328 237.397 31.8741C235.796 32.4155 235.014 32.611 233.906 33.0645C232.797 33.5209 232.256 33.6711 231.854 34.1444C231.451 34.6177 231.635 35.0967 231.896 35.434C232.16 35.7684 232.582 35.8648 233.169 35.8251C233.752 35.7855 234.26 35.7118 234.824 35.2413C235.385 34.7679 235.714 34.2153 235.983 33.4698C236.249 32.7244 236.326 32.1264 236.164 31.5114C236.003 30.8991 235.802 30.5449 235.175 30.4031C234.552 30.2614 234.127 30.4031 233.035 30.8028C231.944 31.1996 231.224 31.6899 229.722 32.3956C228.22 33.1014 227.327 33.5804 225.53 34.3371C223.73 35.0939 222.625 35.5219 220.735 36.1794C218.841 36.8341 217.81 37.1629 216.072 37.6136C214.332 38.0671 213.436 38.2796 212.039 38.4384C210.642 38.5942 209.927 38.4639 209.086 38.4015C208.244 38.3363 208.071 38.3391 207.83 38.1152C207.589 37.8942 207.711 37.8545 207.878 37.2848C208.048 36.7151 208.125 36.1737 208.68 35.2696C209.236 34.3655 209.709 33.7391 210.656 32.7613C211.6 31.7834 212.286 31.2166 213.405 30.3861C214.527 29.5529 215.281 29.1476 216.265 28.6034C217.248 28.0563 217.81 28.0365 218.325 27.6567C218.841 27.2769 218.878 26.9255 218.841 26.7016C218.804 26.4748 218.617 26.3048 218.147 26.5287C217.676 26.7526 217.427 27.1635 216.495 27.8211C215.559 28.4787 214.842 28.9973 213.476 29.8193C212.107 30.6412 211.254 31.0862 209.655 31.9337C208.057 32.7783 207.113 33.2884 205.489 34.0537C203.862 34.819 202.958 35.2271 201.527 35.7599C200.095 36.2928 199.353 36.4458 198.33 36.7179C197.306 36.9929 196.884 36.9844 196.411 37.1261C195.937 37.265 195.946 37.4378 195.96 37.4208C195.971 37.4038 196.156 37.3642 196.476 37.0439C196.799 36.7236 197.026 36.4317 197.57 35.8251C198.111 35.2186 198.551 34.7311 199.186 34.0169C199.82 33.2998 200.376 32.9852 200.742 32.2454C201.104 31.5057 201.121 30.9672 201.008 30.3181C200.892 29.6662 200.676 29.3346 200.166 28.9945C199.656 28.6516 199.245 28.5382 198.454 28.6119C197.663 28.6827 197.202 29.0625 196.21 29.3573C195.218 29.6521 194.617 29.8306 193.494 30.0885C192.372 30.3465 191.757 30.508 190.595 30.6497C189.43 30.7914 188.767 30.8283 187.675 30.7971C186.584 30.7631 186.003 30.6157 185.139 30.4853C184.277 30.3521 183.926 30.1594 183.359 30.1339C182.792 30.1084 182.557 30.2217 182.307 30.355C182.058 30.4853 182.024 30.7036 182.112 30.7886C182.2 30.8765 182.33 30.8821 182.749 30.7858C183.169 30.6894 183.495 30.6441 184.215 30.3096C184.932 29.9752 185.383 29.6095 186.341 29.1164C187.296 28.6232 187.911 28.3653 188.996 27.8409C190.082 27.3194 190.677 27.0615 191.768 26.5088C192.857 25.9533 193.455 25.667 194.452 25.0718C195.447 24.4795 195.963 24.2131 196.748 23.5385C197.53 22.8611 197.885 22.4728 198.369 21.6905C198.854 20.9083 199.021 20.4576 199.174 19.63C199.324 18.8024 199.305 18.3121 199.126 17.5496C198.95 16.7872 198.743 16.4018 198.284 15.8207C197.825 15.2369 197.502 14.9903 196.83 14.6388C196.161 14.2874 195.779 14.0833 194.931 14.0663C194.081 14.0493 193.568 14.1768 192.584 14.5538C191.601 14.9336 191.116 15.217 190.014 15.9539C188.911 16.6909 188.347 17.167 187.077 18.2355C185.805 19.3041 185.04 19.9645 183.656 21.3022C182.273 22.6429 181.573 23.4166 180.159 24.933C178.742 26.4521 177.962 27.3223 176.576 28.8896C175.188 30.457 174.453 31.3526 173.215 32.7698C171.979 34.1869 171.347 34.9578 170.392 35.9725C169.434 36.9844 168.813 37.2479 168.436 37.8346C168.062 38.4242 168.323 38.8408 168.513 38.9173C168.703 38.991 169.06 38.8408 169.383 38.2144C169.706 37.5881 169.664 36.9362 170.128 35.7826C170.593 34.6291 170.97 33.8213 171.707 32.4495C172.444 31.0777 172.934 30.3096 173.816 28.9208C174.697 27.532 175.222 26.7753 176.114 25.5055C177.004 24.2357 177.551 23.5782 178.277 22.5748C179 21.5743 179.518 21.2427 179.734 20.4973C179.946 19.749 179.745 19.1822 179.351 18.8449C178.957 18.5048 178.464 18.3801 177.758 18.8024C177.053 19.2247 176.763 19.9446 175.825 20.9593C174.89 21.9768 174.298 22.6429 173.07 23.8871C171.846 25.1342 171.101 25.8541 169.695 27.1891C168.289 28.5268 167.529 29.3034 166.036 30.5675C164.542 31.8316 163.669 32.509 162.226 33.5095C160.784 34.5129 160.035 34.9465 158.825 35.5757C157.618 36.2049 157 36.3892 156.184 36.6556C155.367 36.922 155.109 36.8738 154.744 36.905C154.375 36.9362 154.324 36.9985 154.353 36.8115C154.381 36.6244 154.571 36.4685 154.883 35.9669C155.197 35.468 155.455 35.0854 155.914 34.3116C156.376 33.535 156.946 32.9398 157.184 32.0924C157.422 31.2421 157.368 30.6242 157.11 30.0715C156.853 29.516 156.555 29.2156 155.895 29.3261C155.237 29.4338 154.818 29.8901 153.811 30.6129C152.802 31.3356 152.097 32.0385 150.861 32.9398C149.625 33.8411 148.871 34.391 147.633 35.1251C146.397 35.8563 145.719 36.1794 144.676 36.6046C143.633 37.0297 143.084 36.9815 142.415 37.2508C141.749 37.52 141.579 37.7666 141.338 37.9509C141.1 38.1351 141.085 38.2541 141.219 38.1719C141.349 38.0897 141.539 38.0586 141.998 37.5427C142.46 37.0269 142.707 36.443 143.52 35.5956C144.334 34.7509 144.951 34.1586 146.068 33.3111C147.188 32.4637 147.916 32.0329 149.115 31.3583C150.311 30.6809 150.983 30.3209 152.051 29.9326C153.12 29.5444 153.67 29.5358 154.455 29.4168C155.237 29.2978 155.475 29.414 155.971 29.3403C156.467 29.2638 156.64 29.2184 156.938 29.0455C157.235 28.8698 157.32 28.7649 157.459 28.4702C157.601 28.1782 157.689 27.9118 157.641 27.5802Z" fill="#F2F2F2" stroke="#F2F2F2"/>
</svg>
